<svg stroke-linejoin="round" xmlns:rdf="http://www.w3.org/1999/02/22-rdf-syntax-ns#" xmlns="http://www.w3.org/2000/svg" clip-path="url(#presentation_clip_path)" xml:space="preserve" fill-rule="evenodd" height="25.78mm" width="125.9mm" version="1.2" xmlns:ooo="http://xml.openoffice.org/svg/export" preserveAspectRatio="xMidYMid" xmlns:cc="http://creativecommons.org/ns#" stroke-width="28.222" viewBox="0 0 12590.001 2577.9828" xmlns:dc="http://purl.org/dc/elements/1.1/"><metadata><rdf:RDF><cc:Work rdf:about=""><dc:format>image/svg+xml</dc:format><dc:type rdf:resource="http://purl.org/dc/dcmitype/StillImage"/><dc:title/></cc:Work></rdf:RDF></metadata><defs class="ClipPathGroup"><clipPath id="presentation_clip_path" clipPathUnits="userSpaceOnUse"><rect y="0" x="0" height="21590" width="27940"/></clipPath></defs><defs class="TextShapeIndex"/><defs class="EmbeddedBulletChars"><g transform="scale(4.8828125e-4,-4.8828125e-4)"/><g transform="scale(4.8828125e-4,-4.8828125e-4)"/><g transform="scale(4.8828125e-4,-4.8828125e-4)"/><g transform="scale(4.8828125e-4,-4.8828125e-4)"/><g transform="scale(4.8828125e-4,-4.8828125e-4)"/><g transform="scale(4.8828125e-4,-4.8828125e-4)"/><g transform="scale(4.8828125e-4,-4.8828125e-4)"/><g transform="scale(4.8828125e-4,-4.8828125e-4)"/><g transform="scale(4.8828125e-4,-4.8828125e-4)"/></defs><g transform="translate(-562.8506,-450.05897)"><g class="Master_Slide"/></g><g fill="#FFF" transform="translate(-9152,-411.01738)"><path d="m12771,986c-40-43-239-38-294-39-302-2-866,15-1148,15-11,0-50,19-44,35-200,0-306,1-548-2-131-1-443,15-451-216-4-116,102-218,227-342-80-24-160,29-241,74-39,39-66,65-99,98-122,178-170,358-141,538,110-21,192,130,115,201l-69,1c-33,0-59,34-58,74l2,160c1,41,28,68,60,68h348c32-1,58-34,57-75l-2-160c0-40-27-73-60-72h-43c-77-215,170-187,310-185,262,2,350,1,581,1,13,16,7,46,43,61,23,9,1412,6,1437,0s18-18,27-27c12-48,39-155-9-208zm-2343,388,0,170s-5-111-50-118c-46-7-20-52-20-52h70zm2328-312s-41-14-74-35c-71-46-1331-5-1331-5l36-30s1284-22,1328,0,41,70,41,70z" fill="#FFF"/></g><g fill="#FFF" transform="translate(-9152,-411.01738)"><path d="m9763,2584c25-36,37-79,37-129,0-33-9-63-27-88-19-26-46-49-82-68s-83-36-140-50c-50-12-87-22-115-30s-50-19-67-32c-18-13-26-30-26-51,0-23,11-43,35-58,23-14,52-22,86-22s60,6,80,17,37,26,51,45c17,21,32,38,45,48s28,15,46,15c25,0,44-6,58-19,13-13,20-29,20-49,0-18-7-38-19-57-13-20-33-38-58-55-25-16-57-29-94-39-38-10-81-15-129-15-60,0-112,10-155,29-42,19-75,46-96,78-22,32-33,67-33,103,0,40,12,75,35,102,24,28,55,51,95,68s92,34,155,50c57,14,99,28,124,43,26,16,39,41,39,76,0,23-13,43-38,60-24,17-56,26-94,26-46,0-84-9-111-25-27-17-50-42-70-76-9-17-19-30-29-39-9-9-23-13-42-13-21,0-38,7-52,20-13,14-20,30-20,49,0,30,11,60,33,90s57,55,104,75,104,30,169,30c69,0,129-9,177-28,47-18,84-45,108-81z" fill="#FFF"/></g><g fill="#FFF" transform="translate(-9152,-411.01738)"><path d="m11083,1671c-61,0-109,8-143,23s-59,40-73,73-22,79-22,136v61h-48c-60,0-89,20-89,62,0,19,7,33,21,45s34,18,61,18h55v496c0,36,9,63,25,81,17,19,38,28,63,28,26,0,48-10,64-28,17-18,25-45,25-81v-496h50c33,0,58-4,76-12s26-25,26-54c0-40-33-59-102-59h-50v-49c0-37,5-67,15-87,10-21,33-32,69-32,12,0,27,1,45,4s30,4,37,4c14,0,26-5,37-17,10-11,16-25,16-41,0-50-54-75-158-75z" fill="#FFF"/></g><g fill="#FFF" transform="translate(-9152,-411.01738)"><path d="m11728,2605c0-16-5-30-16-41-11-12-24-17-38-17-10,0-24,2-42,6-19,4-34,6-45,6-22,0-37-6-47-17-9-10-15-24-17-40s-4-39-4-68v-346h40c36,0,64-5,82-15,19-9,28-25,28-48,0-18-7-33-20-44-13-12-32-18-57-18h-73v-131c0-31-1-55-5-72-3-16-10-29-22-41-18-16-39-25-61-25-16,0-31,4-44,11-12,8-22,18-29,30-7,11-11,25-13,42-1,17-2,40-2,70v116h-25c-27,0-48,6-62,18-13,11-20,26-20,44s6,33,20,45c13,12,32,18,58,18h29v361c0,57,4,103,14,137,9,33,28,60,57,78,29,19,72,29,129,29,60,0,107-8,139-23,31-16,46-37,46-65z" fill="#FFF"/></g><g fill="#FFF" transform="translate(-9152,-411.01738)"><path d="m12639,2550,152-445c14-38,21-66,21-85s-8-37-23-51c-15-15-34-22-55-22s-37,5-48,14c-11,10-19,21-24,34s-11,35-19,64l-127,431-115-401c-11-39-20-66-26-81s-17-29-32-42-36-19-62-19-47,6-61,19c-15,13-26,26-31,40-6,15-14,43-26,83l-115,401-125-431c-12-41-24-71-35-88-9-16-29-24-58-24-22,0-41,8-56,23s-22,31-22,50c0,15,7,44,22,85l151,445c4,12,9,28,17,48,7,20,15,37,24,51,9,15,21,25,34,33,14,7,31,11,50,11,38,0,65-12,80-36,16-25,30-63,44-113l107-377,111,377c9,33,17,59,25,79,7,20,19,37,34,50,15,14,37,20,63,20s47-6,62-18c15-13,26-27,33-44,7-16,17-43,30-81z" fill="#FFF"/></g><g fill="#FFF" transform="translate(-9152,-411.01738)"><path d="m13568,2551c-12-38-18-76-18-111,1-37,1-71,1-101,1-30,1-68,1-111,0-68-10-123-29-164s-51-71-96-90c-46-18-111-28-191-28-72,0-134,10-182,30-48,19-83,44-106,74-22,30-34,61-34,93,0,19,7,35,22,48,14,12,31,19,51,19,21,0,35-4,41-11,7-9,19-26,36-52,17-27,39-47,63-61,24-13,61-20,109-20,56,0,94,12,112,36s28,61,30,111l1,3-4,1c-38,11-74,21-109,29-33,8-73,17-120,27-49,10-76,15-88,18-55,12-98,36-130,71-31,35-47,77-47,127,0,36,10,71,29,102,19,32,46,57,81,75s77,28,124,28c51,0,98-9,139-26,42-18,85-44,129-78l4-3,3,4c21,34,40,59,59,77,17,17,35,26,53,26,21,0,41-8,58-23s25-30,25-48c0-11-6-35-17-72zm-190-200c0,65-8,113-25,141-15,26-39,48-71,64-31,17-66,25-103,25-36,0-65-10-87-31s-34-46-34-75,10-51,29-67,39-26,59-32c20-5,56-13,108-24s92-22,118-32l7-2v33h-1z" fill="#FFF"/></g><g fill="#FFF" transform="translate(-9152,-411.01738)"><path d="m14145,1976c-36-19-74-29-112-29s-68,10-90,28c-23,19-46,48-68,85l-8,14-1-16c-1-37-8-65-21-84-13-18-34-27-63-27-58,0-86,39-86,121v517c0,36,8,63,25,81,16,18,37,27,62,27,26,0,48-9,64-27,17-17,26-45,26-81v-155c0-56,1-104,5-142,4-39,10-73,20-102s24-51,42-66c31-25,76-30,140-9,32,10,43,12,48,12,17,0,33-7,47-21,15-14,22-31,22-53,0-30-17-54-52-73z" fill="#FFF"/></g><g fill="#FFF" transform="translate(-9152,-411.01738)"><path d="m14874,2559c13-21,19-40,19-56,0-18-5-31-16-41-11-9-25-14-43-14-17,0-29,3-38,11-23,22-42,39-56,51-15,13-31,25-48,37-18,11-36,19-55,25-19,5-40,8-62,8-34,0-66-9-94-26-28-16-50-41-67-74s-26-71-26-114v-4h368c47,0,85-7,111-21,25-13,37-42,37-86,0-50-13-99-38-147-25-47-64-87-115-117s-113-45-184-45c-55,0-106,9-151,27-45,17-84,43-114,76-31,33-55,73-71,119s-24,97-24,151c0,115,33,207,98,274s158,101,275,101c52,0,98-7,137-21,40-13,73-30,99-50s46-42,58-64zm-486-299c6-63,25-112,55-144,30-33,70-50,117-50,50,0,91,17,121,49s48,81,53,145v5h-347l1-5z" fill="#FFF"/></g><g fill="#FFF" transform="translate(-9152,-411.01738)"><path d="m16055,2540c13-25,20-50,20-72,0-18-7-36-21-52s-32-24-53-24c-18,0-33,5-45,16-13,12-25,28-36,48-21,36-45,63-72,81-27,17-60,26-98,26-29,0-55-5-78-16-24-11-45-27-61-49-17-20-30-46-39-76-8-29-13-62-13-97,0-76,18-136,52-179,34-44,80-66,136-66,39,0,71,9,97,26,25,18,49,44,72,79,12,17,24,30,34,37,9,8,21,11,35,11,22,0,42-7,57-21,16-15,24-32,24-54,0-20-8-43-22-68-14-24-35-48-63-70-27-21-61-39-100-53-40-14-84-21-131-21-77,0-143,16-198,47-55,32-97,77-126,134-29,58-44,125-44,200,0,111,32,200,95,266,64,66,153,99,266,99,53,0,102-7,144-21,42-15,78-34,106-57s49-48,62-74z" fill="#FFF"/></g><g fill="#FFF" transform="translate(-9152,-411.01738)"><path d="m16872,2551c-12-38-18-76-18-111,1-37,1-71,1-101,1-30,1-68,1-111,0-68-10-123-29-164s-51-71-96-90c-46-18-110-28-191-28-72,0-133,10-182,30-48,19-83,44-106,74-22,30-34,61-34,93,0,19,7,35,22,48,14,13,31,19,51,19,21,0,35-4,41-11,7-9,19-26,36-52,18-27,39-47,63-61,24-13,61-20,109-20,56,0,94,12,112,36s28,61,31,111v3l-4,1c-38,12-75,21-109,29-33,8-73,17-120,27-49,10-76,15-87,18-56,12-99,36-131,71-31,35-47,77-47,127,0,36,10,71,29,102s46,57,81,75,77,28,124,28c51,0,98-9,139-26,42-18,85-44,129-78l4-3,3,4c21,34,40,59,59,77,17,17,35,26,53,26,21,0,41-8,58-23s25-30,25-48c0-11-6-35-17-72zm-189-200c0,65-9,113-26,141-15,26-39,48-71,64-31,17-66,25-103,25-36,0-65-10-87-31-22-20-34-46-34-75s10-51,29-67,39-26,59-32c20-5,56-13,108-24s92-22,118-32l7-2v33z" fill="#FFF"/></g><g fill="#FFF" transform="translate(-9152,-411.01738)"><path d="m17450,1976c-36-19-74-29-112-29s-68,10-91,28c-22,19-45,48-67,85l-8,14v-16c-2-37-9-65-22-84-13-18-34-27-63-27-58,0-86,39-86,121v517c0,36,8,63,25,81,16,18,37,27,62,27,26,0,48-9,64-27,17-17,26-45,26-81v-155c0-56,2-104,5-142,4-39,10-73,20-102s24-51,42-66c31-25,76-30,140-9,32,10,43,12,48,12,16,0,33-7,47-21,15-14,22-31,22-53,0-30-17-54-52-73z" fill="#FFF"/></g><g fill="#FFF" transform="translate(-9152,-411.01738)"><path d="m18209,2594c27-32,49-72,65-119s24-100,24-156c0-77-14-144-41-200-28-55-66-98-113-127s-99-44-155-44c-47,0-89,10-126,30s-73,52-107,94l-9,10v-35c0-33-8-58-23-75-16-16-36-25-61-25-26,0-46,8-60,25-15,16-22,42-22,76v802c0,39,5,69,16,90,11,19,32,29,66,29,57,0,84-39,84-118v-292l9,10c32,41,66,72,101,93,36,21,80,31,132,31,43,0,84-8,121-26,38-17,71-41,99-73zm-113-145c-16,36-38,64-64,82-27,19-57,28-89,28-53,0-98-21-133-63-36-42-54-101-54-176,0-79,18-140,54-181s81-62,133-62c33,0,64,9,91,29,27,19,49,47,64,83,15,35,23,78,23,128,0,51-9,95-25,132z" fill="#FFF"/></g><g fill="#FFF" transform="translate(-9152,-411.01738)"><path d="m19049,2559c13-21,19-40,19-56,0-18-5-31-16-41s-25-14-43-14c-17,0-29,3-38,11-23,22-42,39-56,51-15,13-31,25-48,37-18,11-36,19-55,25-19,5-40,8-62,8-34,0-66-9-94-26-28-16-50-41-67-74s-26-71-26-114v-4h368c47,0,85-7,111-21,25-13,37-42,37-86,0-50-13-99-38-147-25-47-64-87-115-117s-113-45-184-45c-56,0-106,9-151,27-45,17-83,43-114,76s-55,73-71,119-24,97-24,151c0,115,33,207,98,274s158,101,275,101c52,0,98-7,137-21,40-13,73-30,99-50s45-42,58-64zm-486-299c6-63,25-112,55-144,30-33,70-50,117-50,50,0,91,17,121,49s48,81,53,145v5h-347l1-5z" fill="#FFF"/></g><g fill="#FFF" transform="translate(-9152,-411.01738)"><path d="m19847,2239c0-40-2-74-5-100-4-26-12-50-24-72-18-38-47-68-84-89-38-20-81-31-129-31-50,0-94,10-132,30s-74,51-106,93l-8,11v-36c0-21-4-39-11-54-8-15-18-26-30-33-13-7-27-11-42-11-25,0-46,8-60,25-15,16-22,42-22,76v537c0,35,8,62,25,81,16,18,37,27,62,27,27,0,48-9,65-27,16-17,25-45,25-81v-233c0-77,4-128,13-156,13-36,34-64,62-84s59-30,93-30c53,0,88,17,106,51,17,33,26,81,26,142v310c0,35,8,62,25,81,16,18,38,27,64,27s46-9,63-27c16-18,24-45,24-81v-346z" fill="#FFF"/></g><g fill="#FFF" transform="translate(-9152,-411.01738)"><path d="m20429,2605c0-17-5-30-16-41-11-12-24-17-37-17-11,0-25,2-43,6-19,4-34,6-45,6-22,0-37-6-47-17-9-10-15-24-17-40s-4-39-4-68v-346h40c36,0,64-5,83-15,18-9,27-25,27-48,0-18-7-33-20-44-13-12-32-18-57-18h-73v-131c0-31-1-55-5-72-3-16-10-29-22-41-18-16-39-25-61-25-16,0-31,4-43,11-13,8-23,18-30,30-7,11-11,25-13,42-1,17-2,40-2,70v116h-25c-27,0-48,6-62,18-13,11-20,26-20,44s6,33,20,45c13,12,32,18,58,18h29v361c0,57,4,103,14,137,9,33,28,60,57,78,29,19,72,29,129,29,60,0,107-8,139-23,31-16,46-37,46-65z" fill="#FFF"/></g><g fill="#FFF" transform="translate(-9152,-411.01738)"><path d="m20963,1976c-36-19-74-29-112-29s-68,10-91,28c-22,19-45,48-67,85l-8,14-1-16c-1-37-8-65-21-84-13-18-34-27-63-27-58,0-86,39-86,121v517c0,36,8,63,25,81,16,18,37,27,62,27,26,0,48-9,64-27,17-17,26-45,26-81v-155c0-56,1-104,5-142,4-39,10-73,20-102s24-51,42-66c31-25,76-30,140-9,32,10,43,12,48,12,16,0,33-7,47-21,15-14,22-31,22-53,0-30-17-54-52-73z" fill="#FFF"/></g><g fill="#FFF" transform="translate(-9152,-411.01738)"><path d="m21395,2872c20-31,40-75,61-130l242-634c6-17,11-33,15-48,4-16,7-28,9-37,0-12-3-25-10-37s-16-21-28-28-25-11-39-11c-18,0-33,3-42,10-10,6-20,18-29,37s-20,47-32,81l-153,438-162-470c-10-32-22-56-35-72s-31-24-57-24c-15,0-29,4-42,12-14,7-25,18-32,31-8,13-12,27-12,42,0,14,7,38,21,70l229,578-17,43c-13,30-25,54-35,70s-21,28-34,34c-13,7-31,10-53,10-9,0-19-1-31-4-10-3-19-4-29-4-24,0-42,6-54,16-12,11-18,26-18,46,0,30,12,50,38,61,27,11,67,17,121,17,55,0,99-8,131-25s58-41,77-72z" fill="#FFF"/></g><g fill="#FFF" transform="translate(-9152,-411.01738)"><path d="m10145,1768s-9,28,0,37c8,9,51,12,51,12v534l85,61,72-68v-522l22-5c34,9,42-21,42-21v-28h-272zm178,570-24,10,0-523,24-8,0,521zm64-544c-25,2-187-17-187-17h187s26,16,0,17z" fill="#FFF"/></g><g fill="#FFF" transform="translate(-9152,-411.01738)"><path d="m10544,2000-2-1c-14-14-33-22-53-22-43,0-77,35-77,77,0,20,7,39,22,54l1,1c2,3,5,5,8,7,53,47,84,115,84,185,0,137-111,247-248,247-136,0-247-110-247-247,0-69,29-136,81-182,22-15,34-39,34-65,0-42-34-77-77-77-20,0-39,8-54,22l-1,2-1-1c-87,76-136,186-136,301,0,221,180,401,401,401s401-180,401-401c0-115-49-225-136-301z" fill="#FFF"/></g></svg>
