<?xml version="1.0" encoding="UTF-8"?>

<svg version="1.2" baseProfile="tiny" width="279.4mm" height="215.9mm" viewBox="0 0 27940 21590" preserveAspectRatio="xMidYMid" fill-rule="evenodd" clip-path="url(#presentation_clip_path)" stroke-width="28.222" stroke-linejoin="round" xmlns="http://www.w3.org/2000/svg" xmlns:ooo="http://xml.openoffice.org/svg/export" xmlns:xlink="http://www.w3.org/1999/xlink" xml:space="preserve">
 <defs class="ClipPathGroup">
  <clipPath id="presentation_clip_path" clipPathUnits="userSpaceOnUse">
   <rect x="0" y="0" width="27940" height="21590"/>
  </clipPath>
 </defs>
 <defs class="TextShapeIndex">
  <g ooo:slide="id1" ooo:id-list="id3 id4 id5 id6 id7 id8 id9 id10 id11 id12 id13 id14 id15 id16 id17 id18 id19 id20 id21 id22 id23 id24 id25 id26 id27 id28 id29 id30 id31 id32 id33 id34 id35 id36 id37 id38 id39 id40 id41 id42 id43 id44 id45 id46 id47 id48 id49 id50 id51 id52 id53 id54 id55 id56 id57 id58 id59 id60 id61 id62 id63 id64 id65 id66 id67 id68 id69 id70 id71 id72 id73 id74 id75 id76 id77 id78 id79 id80 id81 id82 id83 id84 id85 id86 id87 id88 id89 id90 id91 id92"/>
 </defs>
 <defs class="EmbeddedBulletChars">
  <g id="bullet-char-template(57356)" transform="scale(0.00048828125,-0.00048828125)">
   <path d="M 580,1141 L 1163,571 580,0 -4,571 580,1141 Z"/>
  </g>
  <g id="bullet-char-template(57354)" transform="scale(0.00048828125,-0.00048828125)">
   <path d="M 8,1128 L 1137,1128 1137,0 8,0 8,1128 Z"/>
  </g>
  <g id="bullet-char-template(10146)" transform="scale(0.00048828125,-0.00048828125)">
   <path d="M 174,0 L 602,739 174,1481 1456,739 174,0 Z M 1358,739 L 309,1346 659,739 1358,739 Z"/>
  </g>
  <g id="bullet-char-template(10132)" transform="scale(0.00048828125,-0.00048828125)">
   <path d="M 2015,739 L 1276,0 717,0 1260,543 174,543 174,936 1260,936 717,1481 1274,1481 2015,739 Z"/>
  </g>
  <g id="bullet-char-template(10007)" transform="scale(0.00048828125,-0.00048828125)">
   <path d="M 0,-2 C -7,14 -16,27 -25,37 L 356,567 C 262,823 215,952 215,954 215,979 228,992 255,992 264,992 276,990 289,987 310,991 331,999 354,1012 L 381,999 492,748 772,1049 836,1024 860,1049 C 881,1039 901,1025 922,1006 886,937 835,863 770,784 769,783 710,716 594,584 L 774,223 C 774,196 753,168 711,139 L 727,119 C 717,90 699,76 672,76 641,76 570,178 457,381 L 164,-76 C 142,-110 111,-127 72,-127 30,-127 9,-110 8,-76 1,-67 -2,-52 -2,-32 -2,-23 -1,-13 0,-2 Z"/>
  </g>
  <g id="bullet-char-template(10004)" transform="scale(0.00048828125,-0.00048828125)">
   <path d="M 285,-33 C 182,-33 111,30 74,156 52,228 41,333 41,471 41,549 55,616 82,672 116,743 169,778 240,778 293,778 328,747 346,684 L 369,508 C 377,444 397,411 428,410 L 1163,1116 C 1174,1127 1196,1133 1229,1133 1271,1133 1292,1118 1292,1087 L 1292,965 C 1292,929 1282,901 1262,881 L 442,47 C 390,-6 338,-33 285,-33 Z"/>
  </g>
  <g id="bullet-char-template(9679)" transform="scale(0.00048828125,-0.00048828125)">
   <path d="M 813,0 C 632,0 489,54 383,161 276,268 223,411 223,592 223,773 276,916 383,1023 489,1130 632,1184 813,1184 992,1184 1136,1130 1245,1023 1353,916 1407,772 1407,592 1407,412 1353,268 1245,161 1136,54 992,0 813,0 Z"/>
  </g>
  <g id="bullet-char-template(8226)" transform="scale(0.00048828125,-0.00048828125)">
   <path d="M 346,457 C 273,457 209,483 155,535 101,586 74,649 74,723 74,796 101,859 155,911 209,963 273,989 346,989 419,989 480,963 531,910 582,859 608,796 608,723 608,648 583,586 532,535 482,483 420,457 346,457 Z"/>
  </g>
  <g id="bullet-char-template(8211)" transform="scale(0.00048828125,-0.00048828125)">
   <path d="M -4,459 L 1135,459 1135,606 -4,606 -4,459 Z"/>
  </g>
 </defs>
 <defs class="TextEmbeddedBitmaps"/>
 <g>
  <g id="id2" class="Master_Slide">
   <g id="bg-id2" class="Background"/>
   <g id="bo-id2" class="BackgroundObjects"/>
  </g>
 </g>
 <g class="SlideGroup">
  <g>
   <g id="id1" class="Slide" clip-path="url(#presentation_clip_path)">
    <g class="Page">
     <g class="com.sun.star.drawing.ClosedBezierShape">
      <g id="id3">
       <path fill="rgb(0,0,0)" stroke="none" d="M 2872,10199 L 2905,10208 C 2898,10235 2886,10256 2867,10271 2849,10285 2827,10292 2801,10292 2773,10292 2751,10287 2734,10276 2717,10264 2704,10248 2695,10227 2686,10206 2682,10184 2682,10160 2682,10133 2687,10110 2697,10091 2707,10071 2721,10056 2740,10046 2759,10036 2779,10031 2801,10031 2826,10031 2848,10037 2865,10050 2882,10063 2894,10081 2901,10105 L 2868,10112 C 2862,10094 2854,10081 2843,10072 2831,10064 2817,10060 2801,10060 2781,10060 2765,10064 2752,10074 2739,10083 2730,10095 2724,10111 2719,10127 2716,10143 2716,10160 2716,10181 2720,10200 2726,10216 2732,10232 2742,10244 2755,10252 2768,10260 2783,10264 2798,10264 2817,10264 2833,10258 2846,10247 2858,10237 2867,10221 2872,10199 Z"/>
      </g>
     </g>
     <g class="com.sun.star.drawing.PolyPolygonShape">
      <g id="id4">
       <path fill="rgb(0,0,0)" stroke="none" d="M 3204,10140 L 3037,10140 3037,10111 3204,10111 3204,10140 Z M 3204,10217 L 3037,10217 3037,10188 3204,10188 3204,10217 Z"/>
      </g>
     </g>
     <g class="com.sun.star.drawing.ClosedBezierShape">
      <g id="id5">
       <path fill="rgb(0,0,0)" stroke="none" d="M 3453,10288 L 3422,10288 3422,10090 C 3415,10097 3405,10104 3393,10111 3381,10118 3370,10124 3360,10127 L 3360,10097 C 3377,10089 3392,10079 3405,10068 3418,10056 3428,10045 3433,10034 L 3453,10034 3453,10288 Z"/>
      </g>
     </g>
     <g class="com.sun.star.drawing.ClosedBezierShape">
      <g id="id6">
       <path fill="rgb(0,0,0)" stroke="none" d="M 3532,10163 C 3532,10133 3535,10109 3541,10091 3547,10073 3557,10059 3569,10049 3581,10039 3596,10034 3614,10034 3628,10034 3640,10037 3650,10042 3660,10048 3669,10055 3675,10066 3682,10076 3687,10089 3691,10103 3695,10118 3697,10138 3697,10163 3697,10193 3694,10216 3688,10235 3681,10253 3672,10267 3660,10277 3648,10287 3633,10292 3614,10292 3590,10292 3571,10283 3557,10266 3540,10245 3532,10210 3532,10163 Z M 3564,10163 C 3564,10204 3569,10232 3578,10246 3588,10260 3600,10266 3614,10266 3629,10266 3641,10259 3650,10246 3660,10232 3665,10204 3665,10163 3665,10121 3660,10094 3650,10080 3641,10066 3628,10060 3614,10060 3600,10060 3588,10066 3580,10078 3569,10093 3564,10122 3564,10163 Z"/>
      </g>
     </g>
     <g class="com.sun.star.drawing.ClosedBezierShape">
      <g id="id7">
       <path fill="rgb(0,0,0)" stroke="none" d="M 3728,10163 C 3728,10133 3731,10109 3737,10091 3743,10073 3753,10059 3765,10049 3777,10039 3792,10034 3810,10034 3824,10034 3836,10037 3846,10042 3856,10048 3865,10055 3871,10066 3878,10076 3883,10089 3887,10103 3891,10118 3893,10138 3893,10163 3893,10193 3890,10216 3884,10235 3877,10253 3868,10267 3856,10277 3844,10287 3829,10292 3810,10292 3786,10292 3767,10283 3753,10266 3736,10245 3728,10210 3728,10163 Z M 3760,10163 C 3760,10204 3765,10232 3774,10246 3784,10260 3796,10266 3810,10266 3825,10266 3837,10259 3846,10246 3856,10232 3861,10204 3861,10163 3861,10121 3856,10094 3846,10080 3837,10066 3824,10060 3810,10060 3796,10060 3784,10066 3776,10078 3765,10093 3760,10122 3760,10163 Z"/>
      </g>
     </g>
     <g class="com.sun.star.drawing.ClosedBezierShape">
      <g id="id8">
       <path fill="rgb(0,0,0)" stroke="none" d="M 2691,10677 L 2691,10424 2741,10424 2801,10603 C 2807,10619 2811,10632 2813,10640 2816,10631 2820,10617 2827,10600 L 2887,10424 2932,10424 2932,10677 2900,10677 2900,10465 2826,10677 2796,10677 2723,10462 2723,10677 2691,10677 Z"/>
      </g>
     </g>
     <g class="com.sun.star.drawing.PolyPolygonShape">
      <g id="id9">
       <path fill="rgb(0,0,0)" stroke="none" d="M 3243,10528 L 3076,10528 3076,10499 3243,10499 3243,10528 Z M 3243,10605 L 3076,10605 3076,10576 3243,10576 3243,10605 Z"/>
      </g>
     </g>
     <g class="com.sun.star.drawing.ClosedBezierShape">
      <g id="id10">
       <path fill="rgb(0,0,0)" stroke="none" d="M 3380,10618 L 3409,10615 C 3412,10629 3417,10640 3424,10646 3431,10652 3440,10655 3451,10655 3461,10655 3469,10653 3476,10649 3484,10644 3489,10639 3494,10631 3499,10624 3502,10614 3506,10602 3509,10589 3510,10577 3510,10564 3510,10563 3510,10560 3510,10558 3504,10568 3495,10576 3485,10582 3474,10588 3462,10591 3450,10591 3429,10591 3411,10583 3397,10568 3382,10553 3375,10533 3375,10508 3375,10483 3383,10462 3398,10446 3413,10431 3432,10423 3454,10423 3471,10423 3486,10427 3499,10436 3513,10445 3523,10458 3530,10474 3537,10490 3541,10514 3541,10545 3541,10577 3538,10603 3531,10622 3524,10641 3513,10656 3499,10666 3485,10676 3469,10681 3451,10681 3431,10681 3415,10675 3402,10664 3390,10653 3382,10638 3380,10618 Z M 3507,10507 C 3507,10489 3502,10475 3492,10464 3483,10454 3472,10449 3458,10449 3444,10449 3432,10454 3422,10466 3412,10477 3407,10491 3407,10509 3407,10525 3412,10538 3421,10548 3431,10559 3443,10564 3457,10564 3472,10564 3483,10559 3493,10548 3502,10538 3507,10524 3507,10507 Z"/>
      </g>
     </g>
     <g class="com.sun.star.drawing.ClosedBezierShape">
      <g id="id11">
       <path fill="rgb(0,0,0)" stroke="none" d="M 3571,10610 L 3604,10607 C 3606,10623 3612,10635 3620,10643 3629,10651 3640,10655 3652,10655 3667,10655 3680,10649 3690,10638 3700,10627 3706,10612 3706,10593 3706,10576 3701,10562 3691,10551 3681,10541 3668,10536 3652,10536 3642,10536 3633,10538 3625,10543 3617,10547 3610,10553 3606,10560 L 3577,10557 3601,10427 3727,10427 3727,10457 3626,10457 3612,10525 C 3627,10514 3643,10509 3660,10509 3682,10509 3701,10516 3716,10532 3731,10547 3738,10566 3738,10590 3738,10613 3732,10633 3718,10650 3702,10670 3680,10680 3652,10680 3629,10680 3610,10674 3596,10661 3581,10648 3573,10631 3571,10610 Z"/>
      </g>
     </g>
     <g class="com.sun.star.drawing.ClosedBezierShape">
      <g id="id12">
       <path fill="rgb(0,0,0)" stroke="none" d="M 2762,11065 L 2762,10958 2665,10812 2706,10812 2755,10888 C 2765,10902 2773,10917 2781,10931 2789,10918 2798,10903 2809,10886 L 2858,10812 2897,10812 2796,10958 2796,11065 2762,11065 Z"/>
      </g>
     </g>
     <g class="com.sun.star.drawing.PolyPolygonShape">
      <g id="id13">
       <path fill="rgb(0,0,0)" stroke="none" d="M 3178,10916 L 3011,10916 3011,10887 3178,10887 3178,10916 Z M 3178,10993 L 3011,10993 3011,10964 3178,10964 3178,10993 Z"/>
      </g>
     </g>
     <g class="com.sun.star.drawing.ClosedBezierShape">
      <g id="id14">
       <path fill="rgb(0,0,0)" stroke="none" d="M 3310,10998 L 3343,10995 C 3345,11011 3351,11023 3359,11031 3368,11039 3379,11043 3391,11043 3406,11043 3419,11037 3429,11026 3439,11015 3445,11000 3445,10981 3445,10964 3440,10950 3430,10939 3420,10929 3407,10924 3391,10924 3381,10924 3372,10926 3364,10931 3356,10935 3349,10941 3345,10948 L 3316,10945 3340,10815 3466,10815 3466,10845 3365,10845 3351,10913 C 3366,10902 3382,10897 3399,10897 3421,10897 3440,10904 3455,10920 3470,10935 3477,10954 3477,10978 3477,11001 3471,11021 3457,11038 3441,11058 3419,11068 3391,11068 3368,11068 3349,11062 3335,11049 3320,11036 3312,11019 3310,10998 Z"/>
      </g>
     </g>
     <g class="com.sun.star.drawing.PolyPolygonShape">
      <g id="id15">
       <path fill="rgb(0,0,0)" stroke="none" d="M 2690,11453 L 2690,11200 2723,11200 2723,11325 2849,11200 2894,11200 2788,11302 2899,11453 2855,11453 2765,11325 2723,11365 2723,11453 2690,11453 Z"/>
      </g>
     </g>
     <g class="com.sun.star.drawing.PolyPolygonShape">
      <g id="id16">
       <path fill="rgb(0,0,0)" stroke="none" d="M 3184,11304 L 3017,11304 3017,11275 3184,11275 3184,11304 Z M 3184,11381 L 3017,11381 3017,11352 3184,11352 3184,11381 Z"/>
      </g>
     </g>
     <g class="com.sun.star.drawing.ClosedBezierShape">
      <g id="id17">
       <path fill="rgb(0,0,0)" stroke="none" d="M 3316,11328 C 3316,11298 3319,11274 3325,11256 3331,11238 3341,11224 3353,11214 3365,11204 3380,11199 3398,11199 3412,11199 3424,11202 3434,11207 3444,11213 3453,11220 3459,11231 3466,11241 3471,11254 3475,11268 3479,11283 3481,11303 3481,11328 3481,11358 3478,11381 3472,11400 3465,11418 3456,11432 3444,11442 3432,11452 3417,11457 3398,11457 3374,11457 3355,11448 3341,11431 3324,11410 3316,11375 3316,11328 Z M 3348,11328 C 3348,11369 3353,11397 3362,11411 3372,11425 3384,11431 3398,11431 3413,11431 3425,11424 3434,11411 3444,11397 3449,11369 3449,11328 3449,11286 3444,11259 3434,11245 3425,11231 3412,11225 3398,11225 3384,11225 3372,11231 3364,11243 3353,11258 3348,11287 3348,11328 Z"/>
      </g>
     </g>
     <g class="com.sun.star.drawing.ClosedBezierShape">
      <g id="id18">
       <path fill="rgb(0,0,0)" stroke="none" d="M 5060,10483 L 5060,10230 5172,10230 C 5194,10230 5212,10232 5223,10237 5235,10241 5244,10249 5251,10261 5258,10272 5262,10285 5262,10299 5262,10317 5256,10332 5245,10344 5233,10356 5215,10364 5191,10368 5200,10372 5206,10376 5211,10380 5221,10389 5230,10400 5239,10414 L 5283,10482 5241,10482 5207,10430 C 5197,10415 5189,10403 5183,10395 5177,10387 5171,10381 5166,10378 5161,10375 5156,10373 5151,10372 5147,10371 5141,10370 5132,10370 L 5093,10370 5093,10483 5060,10483 Z M 5093,10341 L 5165,10341 C 5181,10341 5192,10340 5201,10337 5210,10334 5216,10328 5221,10322 5225,10315 5227,10307 5227,10299 5227,10287 5223,10277 5214,10269 5206,10262 5192,10258 5173,10258 L 5093,10258 5093,10341 Z"/>
      </g>
     </g>
     <g class="com.sun.star.drawing.PolyPolygonShape">
      <g id="id19">
       <path fill="rgb(0,0,0)" stroke="none" d="M 5572,10334 L 5405,10334 5405,10305 5572,10305 5572,10334 Z M 5572,10411 L 5405,10411 5405,10382 5572,10382 5572,10411 Z"/>
      </g>
     </g>
     <g class="com.sun.star.drawing.PolyPolygonShape">
      <g id="id20">
       <path fill="rgb(0,0,0)" stroke="none" d="M 5804,10483 L 5804,10422 5694,10422 5694,10394 5809,10230 5835,10230 5835,10394 5869,10394 5869,10422 5835,10422 5835,10483 5804,10483 Z M 5804,10394 L 5804,10280 5724,10394 5804,10394 Z"/>
      </g>
     </g>
     <g class="com.sun.star.drawing.ClosedBezierShape">
      <g id="id21">
       <path fill="rgb(0,0,0)" stroke="none" d="M 5900,10416 L 5931,10412 C 5935,10429 5941,10442 5949,10450 5958,10457 5968,10461 5980,10461 5995,10461 6007,10456 6017,10446 6027,10436 6033,10423 6033,10409 6033,10394 6028,10383 6019,10373 6009,10364 5997,10359 5983,10359 5977,10359 5970,10361 5961,10363 L 5965,10336 C 5967,10336 5968,10336 5970,10336 5983,10336 5995,10333 6005,10326 6016,10319 6021,10308 6021,10294 6021,10283 6017,10273 6010,10266 6002,10258 5992,10254 5980,10254 5968,10254 5958,10258 5950,10266 5942,10273 5936,10285 5934,10300 L 5903,10294 C 5907,10274 5916,10258 5929,10246 5942,10235 5959,10229 5979,10229 5993,10229 6006,10232 6017,10238 6029,10244 6038,10252 6044,10262 6050,10272 6053,10283 6053,10295 6053,10306 6050,10316 6044,10324 6038,10333 6030,10341 6018,10346 6033,10349 6045,10356 6053,10367 6061,10378 6065,10392 6065,10408 6065,10430 6057,10449 6041,10464 6025,10479 6005,10487 5980,10487 5958,10487 5940,10480 5925,10467 5910,10454 5902,10437 5900,10416 Z"/>
      </g>
     </g>
     <g class="com.sun.star.drawing.ClosedBezierShape">
      <g id="id22">
       <path fill="rgb(0,0,0)" stroke="none" d="M 5178,10771 L 5178,10741 5285,10741 5285,10835 C 5268,10848 5251,10858 5234,10864 5216,10871 5198,10874 5180,10874 5155,10874 5133,10869 5112,10858 5092,10848 5077,10832 5066,10812 5056,10792 5051,10770 5051,10745 5051,10720 5056,10697 5066,10676 5077,10655 5091,10639 5111,10628 5130,10618 5152,10613 5177,10613 5196,10613 5212,10616 5227,10622 5242,10628 5253,10636 5262,10647 5270,10657 5276,10671 5281,10688 L 5251,10696 C 5247,10683 5242,10673 5237,10666 5231,10659 5223,10653 5212,10648 5202,10644 5190,10642 5178,10642 5162,10642 5149,10644 5138,10649 5127,10653 5118,10659 5111,10667 5104,10675 5099,10683 5095,10692 5089,10708 5086,10725 5086,10743 5086,10765 5089,10784 5097,10799 5105,10814 5116,10826 5131,10833 5146,10840 5162,10844 5178,10844 5193,10844 5207,10841 5221,10836 5234,10830 5245,10824 5252,10818 L 5252,10771 5178,10771 Z"/>
      </g>
     </g>
     <g class="com.sun.star.drawing.PolyPolygonShape">
      <g id="id23">
       <path fill="rgb(0,0,0)" stroke="none" d="M 5592,10722 L 5425,10722 5425,10693 5592,10693 5592,10722 Z M 5592,10799 L 5425,10799 5425,10770 5592,10770 5592,10799 Z"/>
      </g>
     </g>
     <g class="com.sun.star.drawing.ClosedBezierShape">
      <g id="id24">
       <path fill="rgb(0,0,0)" stroke="none" d="M 5724,10804 L 5757,10801 C 5759,10817 5765,10829 5773,10837 5782,10845 5793,10849 5805,10849 5820,10849 5833,10843 5843,10832 5853,10821 5859,10806 5859,10787 5859,10770 5854,10756 5844,10745 5834,10735 5821,10730 5805,10730 5795,10730 5786,10732 5778,10737 5770,10741 5763,10747 5759,10754 L 5730,10751 5754,10621 5880,10621 5880,10651 5779,10651 5765,10719 C 5780,10708 5796,10703 5813,10703 5835,10703 5854,10710 5869,10726 5884,10741 5891,10760 5891,10784 5891,10807 5885,10827 5871,10844 5855,10864 5833,10874 5805,10874 5782,10874 5763,10868 5749,10855 5734,10842 5726,10825 5724,10804 Z"/>
      </g>
     </g>
     <g class="com.sun.star.drawing.ClosedBezierShape">
      <g id="id25">
       <path fill="rgb(0,0,0)" stroke="none" d="M 5922,10651 L 5922,10621 6085,10621 6085,10645 C 6069,10662 6053,10685 6038,10713 6022,10742 6010,10771 6001,10801 5995,10822 5991,10845 5989,10870 L 5957,10870 C 5958,10850 5962,10826 5969,10798 5977,10770 5987,10743 6001,10717 6015,10691 6030,10669 6046,10651 L 5922,10651 Z"/>
      </g>
     </g>
     <g class="com.sun.star.drawing.ClosedBezierShape">
      <g id="id26">
       <path fill="rgb(0,0,0)" stroke="none" d="M 5058,11259 L 5058,11006 5153,11006 C 5172,11006 5188,11009 5199,11014 5211,11019 5220,11027 5227,11037 5233,11048 5236,11059 5236,11071 5236,11081 5234,11092 5228,11101 5222,11111 5213,11118 5201,11124 5216,11129 5228,11136 5236,11147 5245,11158 5249,11171 5249,11185 5249,11197 5246,11208 5241,11218 5236,11228 5230,11236 5223,11242 5215,11247 5206,11251 5195,11254 5184,11257 5170,11258 5154,11258 L 5058,11258 5058,11259 Z M 5091,11112 L 5146,11112 C 5161,11112 5171,11111 5178,11109 5186,11107 5193,11102 5197,11097 5201,11091 5204,11083 5204,11075 5204,11066 5202,11059 5198,11052 5194,11046 5188,11042 5180,11039 5173,11037 5160,11036 5142,11036 L 5091,11036 5091,11112 Z M 5091,11229 L 5154,11229 C 5165,11229 5173,11228 5177,11228 5185,11226 5191,11224 5196,11221 5202,11217 5206,11213 5209,11207 5212,11200 5214,11193 5214,11185 5214,11176 5212,11168 5207,11161 5202,11154 5195,11149 5187,11146 5178,11143 5166,11142 5150,11142 L 5091,11142 5091,11229 Z"/>
      </g>
     </g>
     <g class="com.sun.star.drawing.PolyPolygonShape">
      <g id="id27">
       <path fill="rgb(0,0,0)" stroke="none" d="M 5552,11110 L 5385,11110 5385,11081 5552,11081 5552,11110 Z M 5552,11187 L 5385,11187 5385,11158 5552,11158 5552,11187 Z"/>
      </g>
     </g>
     <g class="com.sun.star.drawing.ClosedBezierShape">
      <g id="id28">
       <path fill="rgb(0,0,0)" stroke="none" d="M 5801,11259 L 5770,11259 5770,11061 C 5763,11068 5753,11075 5741,11082 5729,11089 5718,11095 5708,11098 L 5708,11068 C 5725,11060 5740,11050 5753,11039 5766,11027 5776,11016 5781,11005 L 5801,11005 5801,11259 Z"/>
      </g>
     </g>
     <g class="com.sun.star.drawing.PolyPolygonShape">
      <g id="id29">
       <path fill="rgb(0,0,0)" stroke="none" d="M 5981,11259 L 5981,11198 5871,11198 5871,11170 5986,11006 6012,11006 6012,11170 6046,11170 6046,11198 6012,11198 6012,11259 5981,11259 Z M 5981,11170 L 5981,11056 5901,11170 5981,11170 Z"/>
      </g>
     </g>
     <g class="com.sun.star.drawing.PolyPolygonShape">
      <g id="id30">
       <path fill="rgb(0,0,0)" stroke="none" d="M 6177,11259 L 6177,11198 6067,11198 6067,11170 6182,11006 6208,11006 6208,11170 6242,11170 6242,11198 6208,11198 6208,11259 6177,11259 Z M 6177,11170 L 6177,11056 6097,11170 6177,11170 Z"/>
      </g>
     </g>
     <g class="com.sun.star.drawing.PolyPolygonShape">
      <g id="id31">
       <path fill="rgb(43,57,144)" stroke="none" d="M 1369,11511 L 634,11511 634,10041 2104,10041 2104,11511 1369,11511 Z"/>
      </g>
     </g>
     <g class="com.sun.star.drawing.ClosedBezierShape">
      <g id="id32">
       <path fill="rgb(43,57,144)" stroke="none" d="M 2255,2418 C 2255,2418 2204,2584 2255,2639 2306,2695 2562,2712 2562,2712 L 2562,5921 3073,6289 3508,5884 3508,2741 3636,2712 C 3841,2767 3892,2584 3892,2584 L 3892,2418 2255,2418 Z M 3329,5847 L 3184,5902 3184,2759 3329,2712 3329,5847 Z M 3713,2575 C 3559,2584 2587,2473 2587,2473 L 3713,2473 C 3713,2473 3866,2565 3713,2575 Z"/>
      </g>
     </g>
     <g class="com.sun.star.drawing.ClosedBezierShape">
      <g id="id33">
       <path fill="rgb(43,57,144)" stroke="none" d="M 4655,3813 L 4655,3814 4643,3805 C 4556,3721 4442,3674 4321,3674 4065,3674 3857,3882 3857,4137 3857,4258 3904,4373 3988,4460 L 3997,4469 C 4012,4483 4028,4497 4046,4510 4365,4794 4548,5198 4548,5622 4548,6442 3881,7109 3061,7109 2241,7109 1574,6442 1574,5622 1574,5206 1751,4806 2060,4525 2192,4437 2269,4293 2269,4137 2269,3882 2061,3674 1806,3674 1683,3674 1568,3721 1481,3807 L 1470,3817 1467,3813 C 947,4272 649,4930 649,5622 649,6952 1731,8034 3061,8034 4391,8034 5473,6952 5473,5622 5473,4930 5175,4272 4655,3813 Z"/>
      </g>
     </g>
     <g class="com.sun.star.drawing.ClosedBezierShape">
      <g id="id34">
       <path fill="rgb(43,57,144)" stroke="none" d="M 12771,986 C 12731,943 12532,948 12477,947 12175,945 11611,962 11329,962 11318,962 11279,981 11285,997 11085,997 10979,998 10737,995 10606,994 10294,1010 10286,779 10282,663 10388,561 10513,437 10433,413 10353,466 10272,511 10233,550 10206,576 10173,609 10051,787 10003,967 10032,1147 10142,1126 10224,1277 10147,1348 L 10078,1349 C 10045,1349 10019,1383 10020,1423 L 10022,1583 C 10023,1624 10050,1651 10082,1651 L 10430,1651 C 10462,1650 10488,1617 10487,1576 L 10485,1416 C 10485,1376 10458,1343 10425,1344 L 10382,1344 C 10305,1129 10552,1157 10692,1159 10954,1161 11042,1160 11273,1160 11286,1176 11280,1206 11316,1221 11339,1230 12728,1227 12753,1221 12778,1215 12771,1203 12780,1194 12792,1146 12819,1039 12771,986 Z M 10428,1374 L 10428,1544 C 10428,1544 10423,1433 10378,1426 10332,1419 10358,1374 10358,1374 L 10428,1374 Z M 12756,1062 C 12756,1062 12715,1048 12682,1027 12611,981 11351,1022 11351,1022 L 11387,992 C 11387,992 12671,970 12715,992 12759,1014 12756,1062 12756,1062 Z"/>
      </g>
     </g>
     <g class="com.sun.star.drawing.ClosedBezierShape">
      <g id="id35">
       <path fill="rgb(43,57,144)" stroke="none" d="M 9763,2584 C 9788,2548 9800,2505 9800,2455 9800,2422 9791,2392 9773,2367 9754,2341 9727,2318 9691,2299 9655,2280 9608,2263 9551,2249 9501,2237 9464,2227 9436,2219 9408,2211 9386,2200 9369,2187 9351,2174 9343,2157 9343,2136 9343,2113 9354,2093 9378,2078 9401,2064 9430,2056 9464,2056 9498,2056 9524,2062 9544,2073 9564,2084 9581,2099 9595,2118 9612,2139 9627,2156 9640,2166 9653,2176 9668,2181 9686,2181 9711,2181 9730,2175 9744,2162 9757,2149 9764,2133 9764,2113 9764,2095 9757,2075 9745,2056 9732,2036 9712,2018 9687,2001 9662,1985 9630,1972 9593,1962 9555,1952 9512,1947 9464,1947 9404,1947 9352,1957 9309,1976 9267,1995 9234,2022 9213,2054 9191,2086 9180,2121 9180,2157 9180,2197 9192,2232 9215,2259 9239,2287 9270,2310 9310,2327 9350,2344 9402,2361 9465,2377 9522,2391 9564,2405 9589,2420 9615,2436 9628,2461 9628,2496 9628,2519 9615,2539 9590,2556 9566,2573 9534,2582 9496,2582 9450,2582 9412,2573 9385,2557 9358,2540 9335,2515 9315,2481 9306,2464 9296,2451 9286,2442 9277,2433 9263,2429 9244,2429 9223,2429 9206,2436 9192,2449 9179,2463 9172,2479 9172,2498 9172,2528 9183,2558 9205,2588 9227,2618 9262,2643 9309,2663 9356,2683 9413,2693 9478,2693 9547,2693 9607,2684 9655,2665 9702,2647 9739,2620 9763,2584 Z"/>
      </g>
     </g>
     <g class="com.sun.star.drawing.ClosedBezierShape">
      <g id="id36">
       <path fill="rgb(43,57,144)" stroke="none" d="M 11083,1671 C 11022,1671 10974,1679 10940,1694 10906,1709 10881,1734 10867,1767 10853,1800 10845,1846 10845,1903 L 10845,1964 10797,1964 C 10737,1964 10708,1984 10708,2026 10708,2045 10715,2059 10729,2071 10743,2083 10763,2089 10790,2089 L 10845,2089 10845,2585 C 10845,2621 10854,2648 10870,2666 10887,2685 10908,2694 10933,2694 10959,2694 10981,2684 10997,2666 11014,2648 11022,2621 11022,2585 L 11022,2089 11072,2089 C 11105,2089 11130,2085 11148,2077 11166,2069 11174,2052 11174,2023 11174,1983 11141,1964 11072,1964 L 11022,1964 11022,1915 C 11022,1878 11027,1848 11037,1828 11047,1807 11070,1796 11106,1796 11118,1796 11133,1797 11151,1800 11169,1803 11181,1804 11188,1804 11202,1804 11214,1799 11225,1787 11235,1776 11241,1762 11241,1746 11241,1696 11187,1671 11083,1671 Z"/>
      </g>
     </g>
     <g class="com.sun.star.drawing.ClosedBezierShape">
      <g id="id37">
       <path fill="rgb(43,57,144)" stroke="none" d="M 11728,2605 C 11728,2589 11723,2575 11712,2564 11701,2552 11688,2547 11674,2547 11664,2547 11650,2549 11632,2553 11613,2557 11598,2559 11587,2559 11565,2559 11550,2553 11540,2542 11531,2532 11525,2518 11523,2502 11521,2486 11519,2463 11519,2434 L 11519,2088 11559,2088 C 11595,2088 11623,2083 11641,2073 11660,2064 11669,2048 11669,2025 11669,2007 11662,1992 11649,1981 11636,1969 11617,1963 11592,1963 L 11519,1963 11519,1832 C 11519,1801 11518,1777 11514,1760 11511,1744 11504,1731 11492,1719 11474,1703 11453,1694 11431,1694 11415,1694 11400,1698 11387,1705 11375,1713 11365,1723 11358,1735 11351,1746 11347,1760 11345,1777 11344,1794 11343,1817 11343,1847 L 11343,1963 11318,1963 C 11291,1963 11270,1969 11256,1981 11243,1992 11236,2007 11236,2025 11236,2043 11242,2058 11256,2070 11269,2082 11288,2088 11314,2088 L 11343,2088 11343,2449 C 11343,2506 11347,2552 11357,2586 11366,2619 11385,2646 11414,2664 11443,2683 11486,2693 11543,2693 11603,2693 11650,2685 11682,2670 11713,2654 11728,2633 11728,2605 Z"/>
      </g>
     </g>
     <g class="com.sun.star.drawing.ClosedBezierShape">
      <g id="id38">
       <path fill="rgb(43,57,144)" stroke="none" d="M 12639,2550 L 12791,2105 C 12805,2067 12812,2039 12812,2020 12812,2001 12804,1983 12789,1969 12774,1954 12755,1947 12734,1947 12713,1947 12697,1952 12686,1961 12675,1971 12667,1982 12662,1995 12657,2008 12651,2030 12643,2059 L 12516,2490 12401,2089 C 12390,2050 12381,2023 12375,2008 12369,1993 12358,1979 12343,1966 12328,1953 12307,1947 12281,1947 12255,1947 12234,1953 12220,1966 12205,1979 12194,1992 12189,2006 12183,2021 12175,2049 12163,2089 L 12048,2490 11923,2059 C 11911,2018 11899,1988 11888,1971 11879,1955 11859,1947 11830,1947 11808,1947 11789,1955 11774,1970 11759,1985 11752,2001 11752,2020 11752,2035 11759,2064 11774,2105 L 11925,2550 C 11929,2562 11934,2578 11942,2598 11949,2618 11957,2635 11966,2649 11975,2664 11987,2674 12000,2682 12014,2689 12031,2693 12050,2693 12088,2693 12115,2681 12130,2657 12146,2632 12160,2594 12174,2544 L 12281,2167 12392,2544 C 12401,2577 12409,2603 12417,2623 12424,2643 12436,2660 12451,2673 12466,2687 12488,2693 12514,2693 12540,2693 12561,2687 12576,2675 12591,2662 12602,2648 12609,2631 12616,2615 12626,2588 12639,2550 Z"/>
      </g>
     </g>
     <g class="com.sun.star.drawing.ClosedBezierShape">
      <g id="id39">
       <path fill="rgb(43,57,144)" stroke="none" d="M 13568,2551 C 13556,2513 13550,2475 13550,2440 13551,2403 13551,2369 13551,2339 13552,2309 13552,2271 13552,2228 13552,2160 13542,2105 13523,2064 13504,2023 13472,1993 13427,1974 13381,1956 13316,1946 13236,1946 13164,1946 13102,1956 13054,1976 13006,1995 12971,2020 12948,2050 12926,2080 12914,2111 12914,2143 12914,2162 12921,2178 12936,2191 12950,2203 12967,2210 12987,2210 13008,2210 13022,2206 13028,2199 13035,2190 13047,2173 13064,2147 13081,2120 13103,2100 13127,2086 13151,2073 13188,2066 13236,2066 13292,2066 13330,2078 13348,2102 13366,2126 13376,2163 13378,2213 L 13379,2216 13375,2217 C 13337,2228 13301,2238 13266,2246 13233,2254 13193,2263 13146,2273 13097,2283 13070,2288 13058,2291 13003,2303 12960,2327 12928,2362 12897,2397 12881,2439 12881,2489 12881,2525 12891,2560 12910,2591 12929,2623 12956,2648 12991,2666 13026,2684 13068,2694 13115,2694 13166,2694 13213,2685 13254,2668 13296,2650 13339,2624 13383,2590 L 13387,2587 13390,2591 C 13411,2625 13430,2650 13449,2668 13466,2685 13484,2694 13502,2694 13523,2694 13543,2686 13560,2671 13577,2656 13585,2641 13585,2623 13585,2612 13579,2588 13568,2551 Z M 13378,2351 C 13378,2416 13370,2464 13353,2492 13338,2518 13314,2540 13282,2556 13251,2573 13216,2581 13179,2581 13143,2581 13114,2571 13092,2550 13070,2529 13058,2504 13058,2475 13058,2446 13068,2424 13087,2408 13106,2392 13126,2382 13146,2376 13166,2371 13202,2363 13254,2352 13306,2341 13346,2330 13372,2320 L 13379,2318 13379,2351 13378,2351 Z"/>
      </g>
     </g>
     <g class="com.sun.star.drawing.ClosedBezierShape">
      <g id="id40">
       <path fill="rgb(43,57,144)" stroke="none" d="M 14145,1976 C 14109,1957 14071,1947 14033,1947 13995,1947 13965,1957 13943,1975 13920,1994 13897,2023 13875,2060 L 13867,2074 13866,2058 C 13865,2021 13858,1993 13845,1974 13832,1956 13811,1947 13782,1947 13724,1947 13696,1986 13696,2068 L 13696,2585 C 13696,2621 13704,2648 13721,2666 13737,2684 13758,2693 13783,2693 13809,2693 13831,2684 13847,2666 13864,2649 13873,2621 13873,2585 L 13873,2430 C 13873,2374 13874,2326 13878,2288 13882,2249 13888,2215 13898,2186 13908,2157 13922,2135 13940,2120 13971,2095 14016,2090 14080,2111 14112,2121 14123,2123 14128,2123 14145,2123 14161,2116 14175,2102 14190,2088 14197,2071 14197,2049 14197,2019 14180,1995 14145,1976 Z"/>
      </g>
     </g>
     <g class="com.sun.star.drawing.ClosedBezierShape">
      <g id="id41">
       <path fill="rgb(43,57,144)" stroke="none" d="M 14874,2559 C 14887,2538 14893,2519 14893,2503 14893,2485 14888,2472 14877,2462 14866,2453 14852,2448 14834,2448 14817,2448 14805,2451 14796,2459 14773,2481 14754,2498 14740,2510 14725,2523 14709,2535 14692,2547 14674,2558 14656,2566 14637,2572 14618,2577 14597,2580 14575,2580 14541,2580 14509,2571 14481,2554 14453,2538 14431,2513 14414,2480 14397,2447 14388,2409 14388,2366 L 14388,2362 14756,2362 C 14803,2362 14841,2355 14867,2341 14892,2328 14904,2299 14904,2255 14904,2205 14891,2156 14866,2108 14841,2061 14802,2021 14751,1991 14700,1961 14638,1946 14567,1946 14512,1946 14461,1955 14416,1973 14371,1990 14332,2016 14302,2049 14271,2082 14247,2122 14231,2168 14215,2214 14207,2265 14207,2319 14207,2434 14240,2526 14305,2593 14370,2660 14463,2694 14580,2694 14632,2694 14678,2687 14717,2673 14757,2660 14790,2643 14816,2623 14842,2603 14862,2581 14874,2559 Z M 14388,2260 C 14394,2197 14413,2148 14443,2116 14473,2083 14513,2066 14560,2066 14610,2066 14651,2083 14681,2115 14711,2147 14729,2196 14734,2260 L 14734,2265 14387,2265 14388,2260 Z"/>
      </g>
     </g>
     <g class="com.sun.star.drawing.ClosedBezierShape">
      <g id="id42">
       <path fill="rgb(43,57,144)" stroke="none" d="M 16055,2540 C 16068,2515 16075,2490 16075,2468 16075,2450 16068,2432 16054,2416 16040,2400 16022,2392 16001,2392 15983,2392 15968,2397 15956,2408 15943,2420 15931,2436 15920,2456 15899,2492 15875,2519 15848,2537 15821,2554 15788,2563 15750,2563 15721,2563 15695,2558 15672,2547 15648,2536 15627,2520 15611,2498 15594,2478 15581,2452 15572,2422 15564,2393 15559,2360 15559,2325 15559,2249 15577,2189 15611,2146 15645,2102 15691,2080 15747,2080 15786,2080 15818,2089 15844,2106 15869,2124 15893,2150 15916,2185 15928,2202 15940,2215 15950,2222 15959,2230 15971,2233 15985,2233 16007,2233 16027,2226 16042,2212 16058,2197 16066,2180 16066,2158 16066,2138 16058,2115 16044,2090 16030,2066 16009,2042 15981,2020 15954,1999 15920,1981 15881,1967 15841,1953 15797,1946 15750,1946 15673,1946 15607,1962 15552,1993 15497,2025 15455,2070 15426,2127 15397,2185 15382,2252 15382,2327 15382,2438 15414,2527 15477,2593 15541,2659 15630,2692 15743,2692 15796,2692 15845,2685 15887,2671 15929,2656 15965,2637 15993,2614 16021,2591 16042,2566 16055,2540 Z"/>
      </g>
     </g>
     <g class="com.sun.star.drawing.ClosedBezierShape">
      <g id="id43">
       <path fill="rgb(43,57,144)" stroke="none" d="M 16872,2551 C 16860,2513 16854,2475 16854,2440 16855,2403 16855,2369 16855,2339 16856,2309 16856,2271 16856,2228 16856,2160 16846,2105 16827,2064 16808,2023 16776,1993 16731,1974 16685,1956 16621,1946 16540,1946 16468,1946 16407,1956 16358,1976 16310,1995 16275,2020 16252,2050 16230,2080 16218,2111 16218,2143 16218,2162 16225,2178 16240,2191 16254,2204 16271,2210 16291,2210 16312,2210 16326,2206 16332,2199 16339,2190 16351,2173 16368,2147 16386,2120 16407,2100 16431,2086 16455,2073 16492,2066 16540,2066 16596,2066 16634,2078 16652,2102 16670,2126 16680,2163 16683,2213 L 16683,2216 16679,2217 C 16641,2229 16604,2238 16570,2246 16537,2254 16497,2263 16450,2273 16401,2283 16374,2288 16363,2291 16307,2303 16264,2327 16232,2362 16201,2397 16185,2439 16185,2489 16185,2525 16195,2560 16214,2591 16233,2622 16260,2648 16295,2666 16330,2684 16372,2694 16419,2694 16470,2694 16517,2685 16558,2668 16600,2650 16643,2624 16687,2590 L 16691,2587 16694,2591 C 16715,2625 16734,2650 16753,2668 16770,2685 16788,2694 16806,2694 16827,2694 16847,2686 16864,2671 16881,2656 16889,2641 16889,2623 16889,2612 16883,2588 16872,2551 Z M 16683,2351 C 16683,2416 16674,2464 16657,2492 16642,2518 16618,2540 16586,2556 16555,2573 16520,2581 16483,2581 16447,2581 16418,2571 16396,2550 16374,2530 16362,2504 16362,2475 16362,2446 16372,2424 16391,2408 16410,2392 16430,2382 16450,2376 16470,2371 16506,2363 16558,2352 16610,2341 16650,2330 16676,2320 L 16683,2318 16683,2351 Z"/>
      </g>
     </g>
     <g class="com.sun.star.drawing.ClosedBezierShape">
      <g id="id44">
       <path fill="rgb(43,57,144)" stroke="none" d="M 17450,1976 C 17414,1957 17376,1947 17338,1947 17300,1947 17270,1957 17247,1975 17225,1994 17202,2023 17180,2060 L 17172,2074 17172,2058 C 17170,2021 17163,1993 17150,1974 17137,1956 17116,1947 17087,1947 17029,1947 17001,1986 17001,2068 L 17001,2585 C 17001,2621 17009,2648 17026,2666 17042,2684 17063,2693 17088,2693 17114,2693 17136,2684 17152,2666 17169,2649 17178,2621 17178,2585 L 17178,2430 C 17178,2374 17180,2326 17183,2288 17187,2249 17193,2215 17203,2186 17213,2157 17227,2135 17245,2120 17276,2095 17321,2090 17385,2111 17417,2121 17428,2123 17433,2123 17449,2123 17466,2116 17480,2102 17495,2088 17502,2071 17502,2049 17502,2019 17485,1995 17450,1976 Z"/>
      </g>
     </g>
     <g class="com.sun.star.drawing.ClosedBezierShape">
      <g id="id45">
       <path fill="rgb(43,57,144)" stroke="none" d="M 18209,2594 C 18236,2562 18258,2522 18274,2475 18290,2428 18298,2375 18298,2319 18298,2242 18284,2175 18257,2119 18229,2064 18191,2021 18144,1992 18097,1963 18045,1948 17989,1948 17942,1948 17900,1958 17863,1978 17826,1998 17790,2030 17756,2072 L 17747,2082 17747,2047 C 17747,2014 17739,1989 17724,1972 17708,1956 17688,1947 17663,1947 17637,1947 17617,1955 17603,1972 17588,1988 17581,2014 17581,2048 L 17581,2850 C 17581,2889 17586,2919 17597,2940 17608,2959 17629,2969 17663,2969 17720,2969 17747,2930 17747,2851 L 17747,2559 17756,2569 C 17788,2610 17822,2641 17857,2662 17893,2683 17937,2693 17989,2693 18032,2693 18073,2685 18110,2667 18148,2650 18181,2626 18209,2594 Z M 18096,2449 C 18080,2485 18058,2513 18032,2531 18005,2550 17975,2559 17943,2559 17890,2559 17845,2538 17810,2496 17774,2454 17756,2395 17756,2320 17756,2241 17774,2180 17810,2139 17846,2098 17891,2077 17943,2077 17976,2077 18007,2086 18034,2106 18061,2125 18083,2153 18098,2189 18113,2224 18121,2267 18121,2317 18121,2368 18112,2412 18096,2449 Z"/>
      </g>
     </g>
     <g class="com.sun.star.drawing.ClosedBezierShape">
      <g id="id46">
       <path fill="rgb(43,57,144)" stroke="none" d="M 19049,2559 C 19062,2538 19068,2519 19068,2503 19068,2485 19063,2472 19052,2462 19041,2452 19027,2448 19009,2448 18992,2448 18980,2451 18971,2459 18948,2481 18929,2498 18915,2510 18900,2523 18884,2535 18867,2547 18849,2558 18831,2566 18812,2572 18793,2577 18772,2580 18750,2580 18716,2580 18684,2571 18656,2554 18628,2538 18606,2513 18589,2480 18572,2447 18563,2409 18563,2366 L 18563,2362 18931,2362 C 18978,2362 19016,2355 19042,2341 19067,2328 19079,2299 19079,2255 19079,2205 19066,2156 19041,2108 19016,2061 18977,2021 18926,1991 18875,1961 18813,1946 18742,1946 18686,1946 18636,1955 18591,1973 18546,1990 18508,2016 18477,2049 18446,2082 18422,2122 18406,2168 18390,2214 18382,2265 18382,2319 18382,2434 18415,2526 18480,2593 18545,2660 18638,2694 18755,2694 18807,2694 18853,2687 18892,2673 18932,2660 18965,2643 18991,2623 19017,2603 19036,2581 19049,2559 Z M 18563,2260 C 18569,2197 18588,2148 18618,2116 18648,2083 18688,2066 18735,2066 18785,2066 18826,2083 18856,2115 18886,2147 18904,2196 18909,2260 L 18909,2265 18562,2265 18563,2260 Z"/>
      </g>
     </g>
     <g class="com.sun.star.drawing.ClosedBezierShape">
      <g id="id47">
       <path fill="rgb(43,57,144)" stroke="none" d="M 19847,2239 C 19847,2199 19845,2165 19842,2139 19838,2113 19830,2089 19818,2067 19800,2029 19771,1999 19734,1978 19696,1958 19653,1947 19605,1947 19555,1947 19511,1957 19473,1977 19435,1997 19399,2028 19367,2070 L 19359,2081 19359,2045 C 19359,2024 19355,2006 19348,1991 19340,1976 19330,1965 19318,1958 19305,1951 19291,1947 19276,1947 19251,1947 19230,1955 19216,1972 19201,1988 19194,2014 19194,2048 L 19194,2585 C 19194,2620 19202,2647 19219,2666 19235,2684 19256,2693 19281,2693 19308,2693 19329,2684 19346,2666 19362,2649 19371,2621 19371,2585 L 19371,2352 C 19371,2275 19375,2224 19384,2196 19397,2160 19418,2132 19446,2112 19474,2092 19505,2082 19539,2082 19592,2082 19627,2099 19645,2133 19662,2166 19671,2214 19671,2275 L 19671,2585 C 19671,2620 19679,2647 19696,2666 19712,2684 19734,2693 19760,2693 19786,2693 19806,2684 19823,2666 19839,2648 19847,2621 19847,2585 L 19847,2239 Z"/>
      </g>
     </g>
     <g class="com.sun.star.drawing.ClosedBezierShape">
      <g id="id48">
       <path fill="rgb(43,57,144)" stroke="none" d="M 20429,2605 C 20429,2588 20424,2575 20413,2564 20402,2552 20389,2547 20376,2547 20365,2547 20351,2549 20333,2553 20314,2557 20299,2559 20288,2559 20266,2559 20251,2553 20241,2542 20232,2532 20226,2518 20224,2502 20222,2486 20220,2463 20220,2434 L 20220,2088 20260,2088 C 20296,2088 20324,2083 20343,2073 20361,2064 20370,2048 20370,2025 20370,2007 20363,1992 20350,1981 20337,1969 20318,1963 20293,1963 L 20220,1963 20220,1832 C 20220,1801 20219,1777 20215,1760 20212,1744 20205,1731 20193,1719 20175,1703 20154,1694 20132,1694 20116,1694 20101,1698 20089,1705 20076,1713 20066,1723 20059,1735 20052,1746 20048,1760 20046,1777 20045,1794 20044,1817 20044,1847 L 20044,1963 20019,1963 C 19992,1963 19971,1969 19957,1981 19944,1992 19937,2007 19937,2025 19937,2043 19943,2058 19957,2070 19970,2082 19989,2088 20015,2088 L 20044,2088 20044,2449 C 20044,2506 20048,2552 20058,2586 20067,2619 20086,2646 20115,2664 20144,2683 20187,2693 20244,2693 20304,2693 20351,2685 20383,2670 20414,2654 20429,2633 20429,2605 Z"/>
      </g>
     </g>
     <g class="com.sun.star.drawing.ClosedBezierShape">
      <g id="id49">
       <path fill="rgb(43,57,144)" stroke="none" d="M 20963,1976 C 20927,1957 20889,1947 20851,1947 20813,1947 20783,1957 20760,1975 20738,1994 20715,2023 20693,2060 L 20685,2074 20684,2058 C 20683,2021 20676,1993 20663,1974 20650,1956 20629,1947 20600,1947 20542,1947 20514,1986 20514,2068 L 20514,2585 C 20514,2621 20522,2648 20539,2666 20555,2684 20576,2693 20601,2693 20627,2693 20649,2684 20665,2666 20682,2649 20691,2621 20691,2585 L 20691,2430 C 20691,2374 20692,2326 20696,2288 20700,2249 20706,2215 20716,2186 20726,2157 20740,2135 20758,2120 20789,2095 20834,2090 20898,2111 20930,2121 20941,2123 20946,2123 20962,2123 20979,2116 20993,2102 21008,2088 21015,2071 21015,2049 21015,2019 20998,1995 20963,1976 Z"/>
      </g>
     </g>
     <g class="com.sun.star.drawing.ClosedBezierShape">
      <g id="id50">
       <path fill="rgb(43,57,144)" stroke="none" d="M 21395,2872 C 21415,2841 21435,2797 21456,2742 L 21698,2108 C 21704,2091 21709,2075 21713,2060 21717,2044 21720,2032 21722,2023 21722,2011 21719,1998 21712,1986 21705,1974 21696,1965 21684,1958 21672,1951 21659,1947 21645,1947 21627,1947 21612,1950 21603,1957 21593,1963 21583,1975 21574,1994 21565,2013 21554,2041 21542,2075 L 21389,2513 21227,2043 C 21217,2011 21205,1987 21192,1971 21179,1955 21161,1947 21135,1947 21120,1947 21106,1951 21093,1959 21079,1966 21068,1977 21061,1990 21053,2003 21049,2017 21049,2032 21049,2046 21056,2070 21070,2102 L 21299,2680 21282,2723 C 21269,2753 21257,2777 21247,2793 21237,2809 21226,2821 21213,2827 21200,2834 21182,2837 21160,2837 21151,2837 21141,2836 21129,2833 21119,2830 21110,2829 21100,2829 21076,2829 21058,2835 21046,2845 21034,2856 21028,2871 21028,2891 21028,2921 21040,2941 21066,2952 21093,2963 21133,2969 21187,2969 21242,2969 21286,2961 21318,2944 21350,2927 21376,2903 21395,2872 Z"/>
      </g>
     </g>
     <g class="com.sun.star.drawing.ClosedBezierShape">
      <g id="id51">
       <path fill="rgb(43,57,144)" stroke="none" d="M 10145,1768 C 10145,1768 10136,1796 10145,1805 10153,1814 10196,1817 10196,1817 L 10196,2351 10281,2412 10353,2344 10353,1822 10375,1817 C 10409,1826 10417,1796 10417,1796 L 10417,1768 10145,1768 Z M 10323,2338 L 10299,2348 10299,1825 10323,1817 10323,2338 Z M 10387,1794 C 10362,1796 10200,1777 10200,1777 L 10387,1777 C 10387,1777 10413,1793 10387,1794 Z"/>
      </g>
     </g>
     <g class="com.sun.star.drawing.ClosedBezierShape">
      <g id="id52">
       <path fill="rgb(43,57,144)" stroke="none" d="M 10544,2000 L 10542,1999 C 10528,1985 10509,1977 10489,1977 10446,1977 10412,2012 10412,2054 10412,2074 10419,2093 10434,2108 L 10435,2109 C 10437,2112 10440,2114 10443,2116 10496,2163 10527,2231 10527,2301 10527,2438 10416,2548 10279,2548 10143,2548 10032,2438 10032,2301 10032,2232 10061,2165 10113,2119 10135,2104 10147,2080 10147,2054 10147,2012 10113,1977 10070,1977 10050,1977 10031,1985 10016,1999 L 10015,2001 10014,2000 C 9927,2076 9878,2186 9878,2301 9878,2522 10058,2702 10279,2702 10500,2702 10680,2522 10680,2301 10680,2186 10631,2076 10544,2000 Z"/>
      </g>
     </g>
     <g class="com.sun.star.drawing.ClosedBezierShape">
      <g id="id53">
       <path fill="rgb(43,57,144)" stroke="none" d="M 4255,10779 C 4255,10745 4264,10720 4283,10703 4299,10690 4318,10683 4341,10683 4366,10683 4386,10691 4402,10708 4418,10724 4426,10747 4426,10776 4426,10800 4423,10818 4416,10832 4409,10845 4398,10856 4385,10863 4372,10871 4357,10874 4341,10874 4315,10874 4295,10866 4279,10850 4263,10833 4255,10810 4255,10779 Z M 4287,10779 C 4287,10802 4292,10820 4302,10831 4312,10843 4325,10849 4341,10849 4356,10849 4369,10843 4379,10831 4389,10819 4395,10802 4395,10778 4395,10755 4389,10738 4379,10726 4369,10714 4356,10709 4341,10709 4325,10709 4312,10714 4302,10726 4292,10738 4287,10755 4287,10779 Z"/>
      </g>
     </g>
     <g class="com.sun.star.drawing.ClosedBezierShape">
      <g id="id54">
       <path fill="rgb(43,57,144)" stroke="none" d="M 4463,10870 L 4463,10687 4491,10687 4491,10715 C 4498,10702 4505,10693 4511,10689 4517,10685 4523,10683 4531,10683 4541,10683 4552,10686 4562,10693 L 4552,10722 C 4544,10717 4537,10715 4529,10715 4522,10715 4516,10717 4511,10721 4505,10725 4501,10731 4499,10738 4496,10749 4494,10761 4494,10774 L 4494,10870 4463,10870 Z"/>
      </g>
     </g>
     <g class="com.sun.star.drawing.ClosedBezierShape">
      <g id="id55">
       <path fill="rgb(43,57,144)" stroke="none" d="M 10167,8099 C 10200,8049 10217,7989 10217,7920 10217,7875 10204,7834 10179,7798 10154,7763 10116,7731 10067,7705 10018,7679 9951,7655 9873,7636 9805,7619 9753,7606 9715,7595 9676,7583 9645,7568 9622,7550 9598,7532 9585,7508 9585,7479 9585,7448 9602,7421 9634,7401 9666,7380 9706,7370 9753,7370 9799,7370 9837,7378 9864,7394 9891,7409 9914,7430 9934,7455 9958,7485 9979,7507 9997,7522 10014,7536 10036,7543 10060,7543 10094,7543 10121,7534 10140,7517 10158,7499 10167,7477 10167,7448 10167,7423 10158,7396 10140,7369 10123,7342 10096,7317 10062,7294 10027,7271 9983,7253 9931,7240 9879,7226 9819,7219 9753,7219 9670,7219 9598,7233 9539,7259 9481,7286 9436,7322 9406,7367 9376,7411 9361,7459 9361,7509 9361,7565 9378,7613 9409,7650 9442,7689 9486,7720 9541,7744 9595,7768 9668,7791 9755,7813 9833,7831 9891,7851 9925,7873 9962,7894 9980,7929 9980,7977 9980,8008 9962,8036 9928,8061 9894,8084 9850,8096 9797,8096 9733,8096 9682,8084 9644,8061 9607,8038 9574,8003 9547,7956 9535,7934 9521,7915 9507,7902 9494,7891 9475,7884 9450,7884 9420,7884 9397,7893 9378,7913 9359,7931 9350,7954 9350,7980 9350,8022 9365,8063 9396,8104 9426,8145 9474,8180 9538,8208 9603,8235 9683,8250 9773,8250 9868,8250 9951,8237 10017,8211 10082,8185 10133,8148 10167,8099 Z"/>
      </g>
     </g>
     <g class="com.sun.star.drawing.ClosedBezierShape">
      <g id="id56">
       <path fill="rgb(43,57,144)" stroke="none" d="M 11988,6838 C 11905,6838 11838,6849 11791,6870 11744,6890 11711,6924 11691,6970 11671,7016 11661,7080 11661,7159 L 11661,7242 11593,7242 C 11511,7242 11471,7270 11471,7328 11471,7354 11480,7374 11500,7390 11519,7406 11548,7414 11584,7414 L 11661,7414 11661,8100 C 11661,8149 11673,8187 11695,8212 11718,8237 11746,8250 11782,8250 11818,8250 11847,8237 11870,8212 11893,8187 11905,8149 11905,8100 L 11905,7414 11974,7414 C 12018,7414 12054,7409 12079,7398 12103,7388 12114,7363 12114,7324 12114,7269 12068,7242 11974,7242 L 11905,7242 11905,7175 C 11905,7123 11911,7083 11925,7055 11939,7025 11972,7011 12020,7011 12037,7011 12058,7013 12083,7016 12107,7020 12124,7022 12134,7022 12153,7022 12170,7014 12185,6998 12199,6982 12206,6964 12206,6942 12206,6873 12133,6838 11988,6838 Z"/>
      </g>
     </g>
     <g class="com.sun.star.drawing.ClosedBezierShape">
      <g id="id57">
       <path fill="rgb(43,57,144)" stroke="none" d="M 12880,8129 C 12880,8106 12872,8087 12857,8072 12841,8056 12825,8049 12805,8049 12792,8049 12772,8052 12747,8056 12721,8062 12699,8065 12684,8065 12655,8065 12633,8057 12620,8043 12607,8029 12598,8009 12596,7986 12593,7965 12591,7933 12591,7893 L 12591,7415 12646,7415 C 12695,7415 12734,7408 12760,7395 12785,7382 12797,7360 12797,7328 12797,7303 12788,7282 12771,7267 12753,7251 12726,7242 12692,7242 L 12591,7242 12591,7061 C 12591,7019 12589,6985 12585,6962 12580,6940 12570,6921 12553,6906 12528,6883 12500,6871 12469,6871 12447,6871 12427,6877 12409,6887 12391,6897 12377,6910 12368,6927 12359,6943 12353,6963 12350,6985 12348,7008 12348,7041 12348,7082 L 12348,7242 12313,7242 C 12276,7242 12248,7251 12228,7267 12208,7283 12200,7303 12200,7328 12200,7354 12209,7374 12227,7390 12245,7406 12272,7415 12308,7415 L 12348,7415 12348,7913 C 12348,7992 12354,8056 12366,8103 12379,8148 12405,8185 12445,8211 12485,8237 12546,8250 12624,8250 12707,8250 12772,8239 12816,8218 12859,8197 12880,8168 12880,8129 Z"/>
      </g>
     </g>
     <g class="com.sun.star.drawing.ClosedBezierShape">
      <g id="id58">
       <path fill="rgb(43,57,144)" stroke="none" d="M 14137,8052 L 14347,7437 C 14366,7385 14376,7345 14376,7320 14376,7293 14365,7269 14344,7249 14323,7229 14297,7219 14269,7219 14240,7219 14217,7226 14202,7238 14186,7252 14175,7267 14169,7285 14162,7303 14153,7333 14142,7374 L 13966,7969 13808,7414 C 13793,7361 13780,7324 13772,7303 13763,7283 13749,7263 13728,7245 13708,7228 13679,7219 13642,7219 13606,7219 13578,7228 13557,7245 13537,7263 13523,7282 13515,7301 13508,7321 13495,7359 13479,7414 L 13321,7969 13147,7374 C 13131,7317 13115,7276 13100,7252 13087,7230 13060,7219 13020,7219 12989,7219 12964,7229 12943,7250 12922,7271 12912,7294 12912,7320 12912,7341 12922,7381 12942,7437 L 13150,8052 C 13156,8068 13164,8090 13174,8118 13184,8146 13195,8169 13208,8189 13221,8208 13236,8223 13255,8234 13274,8245 13297,8250 13324,8250 13377,8250 13413,8232 13434,8199 13455,8165 13476,8112 13495,8044 L 13642,7523 13795,8043 C 13807,8088 13819,8125 13829,8153 13840,8180 13856,8203 13877,8222 13899,8240 13928,8250 13965,8250 14001,8250 14029,8241 14050,8223 14071,8205 14086,8186 14095,8164 14105,8141 14119,8103 14137,8052 Z"/>
      </g>
     </g>
     <g class="com.sun.star.drawing.ClosedBezierShape">
      <g id="id59">
       <path fill="rgb(43,57,144)" stroke="none" d="M 15420,8052 C 15404,7999 15395,7948 15395,7899 15396,7848 15396,7801 15397,7760 15397,7718 15397,7666 15397,7606 15397,7512 15384,7437 15357,7380 15332,7324 15287,7283 15224,7256 15161,7229 15072,7217 14961,7217 14861,7217 14777,7231 14711,7258 14645,7285 14595,7320 14564,7361 14532,7402 14517,7446 14517,7489 14517,7516 14527,7537 14546,7555 14566,7573 14590,7581 14617,7581 14647,7581 14666,7576 14675,7566 14684,7555 14701,7530 14724,7495 14748,7458 14778,7430 14811,7411 14844,7392 14895,7383 14961,7383 15038,7383 15090,7400 15116,7432 15141,7466 15155,7517 15158,7585 L 15158,7590 15153,7592 C 15101,7607 15050,7620 15003,7632 14958,7642 14902,7655 14837,7668 14769,7682 14732,7690 14716,7693 14640,7710 14579,7742 14536,7791 14493,7839 14471,7898 14471,7966 14471,8016 14484,8064 14510,8108 14536,8152 14575,8186 14623,8211 14672,8237 14729,8249 14793,8249 14865,8249 14929,8237 14986,8214 15043,8190 15103,8154 15165,8106 L 15170,8101 15174,8108 C 15202,8154 15230,8190 15255,8214 15279,8237 15304,8249 15328,8249 15358,8249 15385,8239 15408,8218 15432,8198 15443,8176 15443,8151 15443,8137 15435,8103 15420,8052 Z M 15158,7776 C 15158,7866 15146,7932 15123,7972 15102,8007 15069,8037 15025,8060 14982,8082 14934,8094 14882,8094 14833,8094 14793,8079 14762,8051 14731,8023 14716,7988 14716,7947 14716,7908 14729,7877 14755,7855 14782,7833 14809,7818 14837,7811 14865,7804 14915,7793 14987,7777 15058,7762 15112,7747 15150,7733 L 15158,7731 15158,7776 Z"/>
      </g>
     </g>
     <g class="com.sun.star.drawing.ClosedBezierShape">
      <g id="id60">
       <path fill="rgb(43,57,144)" stroke="none" d="M 16216,7259 C 16167,7232 16115,7219 16062,7219 16011,7219 15968,7232 15937,7258 15906,7285 15875,7324 15844,7376 L 15833,7394 15832,7373 C 15830,7322 15821,7283 15803,7257 15785,7231 15756,7219 15716,7219 15636,7219 15597,7274 15597,7385 L 15597,8100 C 15597,8150 15609,8187 15632,8212 15654,8237 15683,8250 15718,8250 15753,8250 15783,8237 15806,8212 15829,8188 15841,8150 15841,8100 L 15841,7886 C 15841,7809 15843,7742 15848,7689 15853,7635 15863,7588 15876,7549 15890,7509 15908,7479 15933,7458 15976,7423 16040,7416 16127,7445 16171,7459 16187,7462 16193,7462 16216,7462 16238,7452 16259,7433 16279,7414 16289,7390 16289,7361 16289,7318 16265,7285 16216,7259 Z"/>
      </g>
     </g>
     <g class="com.sun.star.drawing.ClosedBezierShape">
      <g id="id61">
       <path fill="rgb(43,57,144)" stroke="none" d="M 17222,8064 C 17240,8034 17249,8007 17249,7986 17249,7961 17241,7943 17226,7929 17212,7916 17192,7909 17167,7909 17144,7909 17127,7914 17114,7925 17082,7955 17056,7978 17036,7996 17016,8014 16994,8030 16970,8046 16946,8062 16920,8074 16895,8081 16868,8088 16840,8092 16808,8092 16762,8092 16719,8080 16680,8057 16641,8034 16610,7999 16586,7954 16563,7909 16551,7856 16550,7797 L 16550,7791 17058,7791 C 17125,7791 17176,7781 17212,7762 17246,7745 17264,7704 17264,7643 17264,7575 17246,7507 17211,7441 17176,7375 17123,7321 17052,7279 16981,7237 16896,7217 16797,7217 16721,7217 16652,7229 16589,7254 16527,7278 16474,7313 16431,7359 16389,7404 16357,7459 16334,7524 16312,7587 16301,7657 16301,7732 16301,7891 16347,8018 16436,8110 16525,8202 16654,8249 16816,8249 16887,8249 16951,8240 17005,8221 17059,8202 17106,8179 17142,8151 17178,8123 17205,8094 17222,8064 Z M 16550,7651 C 16559,7563 16585,7496 16627,7451 16669,7405 16723,7383 16789,7383 16857,7383 16913,7405 16955,7450 16998,7495 17022,7562 17028,7651 L 17029,7657 16550,7657 16550,7651 Z"/>
      </g>
     </g>
     <g class="com.sun.star.drawing.ClosedBezierShape">
      <g id="id62">
       <path fill="rgb(43,57,144)" stroke="none" d="M 13475,9360 C 13494,9324 13503,9291 13503,9260 13503,9235 13493,9211 13474,9188 13455,9166 13430,9155 13401,9155 13376,9155 13355,9162 13338,9178 13321,9194 13304,9216 13289,9243 13260,9293 13227,9331 13189,9354 13151,9379 13106,9392 13053,9392 13015,9392 12978,9384 12946,9369 12914,9354 12885,9331 12861,9302 12839,9273 12821,9238 12809,9196 12797,9155 12791,9111 12791,9062 12791,8958 12815,8875 12861,8814 12909,8754 12973,8723 13050,8723 13104,8723 13149,8736 13184,8761 13218,8785 13252,8821 13283,8870 13301,8893 13316,8910 13330,8921 13344,8932 13359,8936 13379,8936 13410,8936 13436,8926 13458,8906 13479,8886 13490,8861 13490,8832 13490,8803 13480,8772 13460,8739 13441,8705 13411,8672 13374,8642 13336,8611 13289,8587 13234,8568 13180,8549 13119,8539 13053,8539 12948,8539 12856,8561 12781,8605 12705,8647 12646,8710 12607,8790 12566,8869 12546,8961 12546,9065 12546,9218 12590,9342 12678,9433 12765,9523 12888,9570 13044,9570 13118,9570 13185,9559 13243,9539 13302,9520 13351,9494 13390,9461 13428,9429 13457,9395 13475,9360 Z"/>
      </g>
     </g>
     <g class="com.sun.star.drawing.ClosedBezierShape">
      <g id="id63">
       <path fill="rgb(43,57,144)" stroke="none" d="M 14605,9374 C 14588,9321 14580,9270 14580,9221 14581,9170 14581,9123 14582,9082 14582,9040 14582,8988 14582,8928 14582,8834 14569,8759 14542,8702 14517,8646 14472,8605 14409,8578 14346,8552 14257,8539 14146,8539 14046,8539 13962,8553 13896,8580 13830,8607 13780,8642 13749,8683 13717,8724 13702,8768 13702,8811 13702,8838 13711,8859 13731,8877 13751,8895 13775,8903 13802,8903 13832,8903 13851,8898 13860,8888 13869,8877 13886,8852 13909,8817 13933,8780 13962,8752 13996,8733 14030,8714 14080,8705 14146,8705 14223,8705 14275,8722 14301,8754 14326,8787 14339,8839 14343,8907 L 14343,8912 14338,8914 C 14286,8929 14235,8942 14188,8953 14143,8964 14087,8977 14022,8990 13954,9004 13916,9011 13901,9015 13825,9031 13764,9064 13721,9113 13678,9161 13656,9220 13656,9288 13656,9338 13669,9386 13695,9430 13721,9474 13760,9508 13808,9533 13857,9558 13914,9571 13978,9571 14050,9571 14114,9559 14171,9535 14228,9512 14288,9476 14350,9428 L 14355,9423 14359,9430 C 14387,9476 14415,9512 14440,9536 14464,9559 14489,9571 14513,9571 14542,9571 14570,9561 14593,9540 14617,9520 14628,9498 14628,9473 14628,9459 14620,9425 14605,9374 Z M 14343,9098 C 14343,9188 14331,9254 14307,9294 14287,9329 14254,9359 14210,9382 14167,9404 14119,9416 14067,9416 14018,9416 13978,9401 13947,9373 13916,9345 13900,9310 13900,9269 13900,9230 13914,9199 13940,9177 13966,9155 13994,9140 14022,9133 14050,9126 14100,9115 14171,9099 14243,9084 14297,9069 14335,9055 L 14343,9053 14343,9098 Z"/>
      </g>
     </g>
     <g class="com.sun.star.drawing.ClosedBezierShape">
      <g id="id64">
       <path fill="rgb(43,57,144)" stroke="none" d="M 15401,8581 C 15352,8554 15300,8541 15247,8541 15196,8541 15153,8554 15122,8580 15091,8607 15060,8646 15029,8698 L 15018,8716 15017,8695 C 15015,8644 15006,8605 14988,8579 14970,8553 14941,8541 14901,8541 14821,8541 14782,8596 14782,8708 L 14782,9422 C 14782,9472 14794,9510 14816,9534 14839,9559 14867,9572 14903,9572 14938,9572 14968,9559 14991,9534 15014,9510 15026,9472 15026,9422 L 15026,9208 C 15026,9131 15028,9064 15033,9011 15038,8957 15048,8910 15061,8871 15075,8832 15094,8801 15118,8781 15161,8745 15225,8739 15312,8767 15356,8781 15372,8784 15378,8784 15401,8784 15423,8774 15444,8755 15464,8736 15474,8712 15474,8683 15474,8640 15450,8607 15401,8581 Z"/>
      </g>
     </g>
     <g class="com.sun.star.drawing.ClosedBezierShape">
      <g id="id65">
       <path fill="rgb(43,57,144)" stroke="none" d="M 16449,9434 C 16487,9390 16518,9335 16540,9270 16562,9204 16573,9132 16573,9055 16573,8949 16554,8856 16516,8779 16478,8702 16426,8643 16361,8603 16295,8563 16224,8543 16146,8543 16081,8543 16023,8557 15972,8584 15921,8611 15872,8655 15824,8714 L 15813,8727 15813,8678 C 15813,8634 15802,8600 15780,8576 15758,8553 15730,8541 15696,8541 15661,8541 15633,8553 15613,8575 15593,8598 15583,8634 15583,8680 L 15583,9787 C 15583,9842 15591,9884 15606,9911 15620,9939 15650,9952 15696,9952 15775,9952 15813,9899 15813,9789 L 15813,9386 15824,9400 C 15869,9456 15916,9499 15965,9528 16013,9557 16075,9572 16146,9572 16206,9572 16262,9559 16314,9536 16366,9513 16411,9478 16449,9434 Z M 16295,9233 C 16273,9284 16242,9322 16205,9347 16168,9373 16127,9386 16083,9386 16010,9386 15948,9356 15898,9298 15850,9241 15825,9160 15825,9056 15825,8947 15850,8863 15899,8806 15949,8749 16010,8720 16083,8720 16129,8720 16171,8734 16208,8761 16246,8787 16275,8825 16297,8875 16318,8924 16328,8984 16328,9052 16328,9122 16317,9184 16295,9233 Z"/>
      </g>
     </g>
     <g class="com.sun.star.drawing.ClosedBezierShape">
      <g id="id66">
       <path fill="rgb(43,57,144)" stroke="none" d="M 17610,9386 C 17627,9356 17636,9329 17636,9308 17636,9283 17628,9265 17614,9251 17599,9238 17579,9231 17554,9231 17531,9231 17514,9237 17501,9247 17469,9277 17444,9300 17424,9318 17403,9336 17381,9353 17357,9368 17333,9384 17307,9396 17282,9403 17256,9410 17227,9414 17195,9414 17149,9414 17106,9402 17067,9379 17028,9356 16997,9321 16974,9276 16950,9231 16938,9178 16938,9119 L 16937,9113 17445,9113 C 17512,9113 17563,9104 17599,9084 17633,9067 17651,9026 17651,8965 17651,8897 17633,8829 17598,8763 17563,8697 17510,8643 17439,8601 17368,8559 17283,8539 17184,8539 17108,8539 17039,8551 16977,8576 16915,8601 16861,8635 16819,8681 16776,8726 16744,8781 16722,8846 16699,8909 16688,8979 16688,9054 16688,9213 16734,9340 16823,9432 16912,9524 17041,9571 17203,9571 17274,9571 17338,9562 17393,9543 17447,9525 17493,9501 17529,9473 17565,9445 17592,9416 17610,9386 Z M 16938,8973 C 16946,8886 16972,8818 17014,8773 17056,8727 17110,8705 17176,8705 17244,8705 17301,8727 17342,8772 17385,8817 17409,8884 17416,8973 L 17416,8979 16937,8979 16938,8973 Z"/>
      </g>
     </g>
     <g class="com.sun.star.drawing.ClosedBezierShape">
      <g id="id67">
       <path fill="rgb(43,57,144)" stroke="none" d="M 18712,8944 C 18712,8889 18709,8842 18704,8806 18699,8771 18688,8737 18672,8707 18646,8654 18607,8613 18555,8584 18503,8555 18443,8541 18377,8541 18308,8541 18248,8555 18195,8582 18143,8609 18094,8653 18050,8712 L 18038,8727 18038,8676 C 18038,8647 18033,8622 18022,8602 18012,8582 17998,8566 17981,8556 17964,8546 17944,8541 17923,8541 17888,8541 17860,8553 17840,8575 17820,8598 17810,8634 17810,8680 L 17810,9422 C 17810,9470 17822,9507 17844,9533 17867,9559 17896,9572 17930,9572 17967,9572 17996,9559 18019,9534 18042,9510 18054,9472 18054,9422 L 18054,9100 C 18054,8994 18060,8923 18073,8884 18091,8835 18119,8796 18158,8769 18197,8741 18240,8727 18286,8727 18359,8727 18408,8750 18433,8797 18457,8843 18469,8909 18469,8995 L 18469,9422 C 18469,9470 18480,9507 18503,9533 18525,9559 18555,9572 18591,9572 18627,9572 18656,9559 18678,9534 18701,9509 18712,9472 18712,9422 L 18712,8944 Z"/>
      </g>
     </g>
     <g class="com.sun.star.drawing.ClosedBezierShape">
      <g id="id68">
       <path fill="rgb(43,57,144)" stroke="none" d="M 19515,9450 C 19515,9427 19507,9408 19492,9393 19476,9377 19460,9370 19440,9370 19427,9370 19407,9372 19382,9377 19355,9383 19335,9386 19319,9386 19290,9386 19269,9378 19255,9364 19242,9349 19233,9330 19231,9307 19228,9285 19226,9254 19226,9214 L 19226,8736 19281,8736 C 19331,8736 19369,8729 19395,8716 19420,8703 19432,8681 19432,8649 19432,8624 19423,8603 19406,8588 19388,8572 19361,8563 19327,8563 L 19226,8563 19226,8382 C 19226,8339 19224,8306 19220,8283 19215,8262 19204,8242 19188,8227 19163,8204 19135,8192 19104,8192 19082,8192 19062,8198 19044,8208 19026,8218 19012,8231 19003,8248 18994,8264 18988,8284 18985,8306 18983,8329 18983,8362 18983,8403 L 18983,8563 18948,8563 C 18911,8563 18883,8572 18863,8588 18843,8604 18835,8624 18835,8649 18835,8675 18844,8695 18862,8711 18880,8727 18907,8736 18943,8736 L 18983,8736 18983,9234 C 18983,9313 18989,9377 19001,9424 19014,9469 19041,9506 19080,9532 19120,9558 19181,9571 19259,9571 19342,9571 19407,9560 19451,9539 19494,9518 19515,9488 19515,9450 Z"/>
      </g>
     </g>
     <g class="com.sun.star.drawing.ClosedBezierShape">
      <g id="id69">
       <path fill="rgb(43,57,144)" stroke="none" d="M 20251,8581 C 20202,8554 20150,8541 20097,8541 20046,8541 20003,8554 19972,8580 19941,8607 19910,8646 19879,8698 L 19868,8716 19867,8695 C 19865,8644 19856,8605 19838,8579 19820,8553 19791,8541 19751,8541 19671,8541 19632,8596 19632,8708 L 19632,9422 C 19632,9472 19644,9510 19666,9534 19689,9559 19717,9572 19753,9572 19788,9572 19818,9559 19841,9534 19864,9510 19876,9472 19876,9422 L 19876,9208 C 19876,9131 19878,9064 19883,9011 19888,8957 19898,8910 19911,8871 19925,8832 19944,8801 19968,8781 20011,8745 20075,8739 20162,8767 20206,8781 20222,8784 20228,8784 20251,8784 20273,8774 20294,8755 20314,8736 20324,8712 20324,8683 20324,8640 20300,8607 20251,8581 Z"/>
      </g>
     </g>
     <g class="com.sun.star.drawing.ClosedBezierShape">
      <g id="id70">
       <path fill="rgb(43,57,144)" stroke="none" d="M 20849,9819 C 20876,9775 20905,9715 20933,9639 L 21268,8763 C 21276,8740 21282,8718 21288,8697 21293,8675 21297,8658 21300,8646 21300,8629 21295,8611 21286,8595 21277,8579 21264,8565 21247,8555 21230,8546 21213,8541 21195,8541 21169,8541 21149,8545 21135,8554 21122,8563 21108,8580 21096,8606 21083,8633 21068,8670 21052,8717 L 20840,9322 20617,8673 C 20603,8630 20586,8596 20568,8574 20550,8552 20525,8541 20490,8541 20470,8541 20450,8547 20431,8557 20412,8568 20398,8582 20387,8600 20377,8618 20371,8637 20371,8658 20371,8678 20381,8710 20400,8755 L 20716,9552 20692,9612 C 20674,9655 20659,9687 20645,9708 20631,9731 20615,9747 20597,9757 20579,9766 20555,9770 20525,9770 20513,9770 20497,9768 20481,9764 20468,9761 20455,9759 20442,9759 20408,9759 20383,9766 20367,9782 20350,9796 20342,9817 20342,9845 20342,9886 20359,9913 20394,9928 20431,9944 20487,9952 20562,9952 20637,9952 20698,9940 20742,9918 20786,9895 20822,9862 20849,9819 Z"/>
      </g>
     </g>
     <g class="com.sun.star.drawing.ClosedBezierShape">
      <g id="id71">
       <path fill="rgb(43,57,144)" stroke="none" d="M 10694,6972 C 10694,6972 10682,7010 10694,7023 10705,7036 10765,7040 10765,7040 L 10765,7776 10882,7861 10981,7768 10981,7046 11011,7040 C 11058,7052 11070,7010 11070,7010 L 11070,6972 10694,6972 Z M 10941,7760 L 10908,7772 10908,7051 10941,7040 10941,7760 Z M 11029,7008 C 10994,7010 10770,6985 10770,6985 L 11029,6985 C 11029,6985 11064,7006 11029,7008 Z"/>
      </g>
     </g>
     <g class="com.sun.star.drawing.ClosedBezierShape">
      <g id="id72">
       <path fill="rgb(43,57,144)" stroke="none" d="M 11245,7293 L 11242,7291 C 11222,7272 11196,7261 11169,7261 11110,7261 11062,7309 11062,7367 11062,7396 11073,7422 11092,7442 L 11094,7444 C 11098,7447 11101,7450 11105,7453 11178,7519 11220,7612 11220,7708 11220,7897 11067,8050 10879,8050 10691,8050 10538,7897 10538,7708 10538,7613 10578,7521 10649,7456 10679,7436 10697,7403 10697,7367 10697,7309 10649,7261 10591,7261 10562,7261 10536,7272 10516,7291 L 10513,7294 10513,7293 C 10393,7398 10325,7550 10325,7708 10325,8014 10574,8263 10879,8263 11184,8263 11433,8014 11433,7708 11433,7550 11365,7398 11245,7293 Z"/>
      </g>
     </g>
     <g class="com.sun.star.drawing.ClosedBezierShape">
      <g id="id73">
       <path fill="rgb(43,57,144)" stroke="none" d="M 14371,5967 C 14316,5907 14041,5913 13964,5913 13547,5909 12768,5934 12380,5933 12364,5933 12310,5960 12319,5982 12043,5982 11895,5982 11562,5980 11382,5978 10950,5999 10939,5680 10934,5520 11080,5379 11253,5208 11142,5175 11031,5249 10920,5311 10866,5364 10829,5400 10783,5445 10615,5692 10549,5940 10589,6189 10741,6160 10854,6368 10747,6466 L 10651,6468 C 10607,6468 10571,6514 10572,6571 L 10575,6791 C 10576,6847 10613,6885 10658,6885 L 11137,6885 C 11183,6884 11218,6838 11217,6782 L 11214,6560 C 11213,6504 11176,6459 11132,6460 L 11072,6461 C 10966,6163 11307,6203 11499,6205 11862,6208 11982,6207 12302,6207 12320,6229 12311,6270 12361,6290 12392,6303 14311,6299 14345,6290 14380,6283 14370,6266 14383,6254 14399,6187 14437,6039 14371,5967 Z M 11135,6503 L 11135,6736 C 11135,6736 11129,6584 11066,6574 11003,6564 11039,6503 11039,6503 L 11135,6503 Z M 14349,6071 C 14349,6071 14293,6052 14247,6023 14149,5960 12410,6016 12410,6016 L 12459,5975 C 12459,5975 14232,5944 14293,5975 14354,6005 14349,6071 14349,6071 Z"/>
      </g>
     </g>
     <g class="com.sun.star.drawing.ClosedBezierShape">
      <g id="id74">
       <path fill="rgb(43,57,144)" stroke="none" d="M 10167,14299 C 10200,14249 10217,14189 10217,14120 10217,14075 10204,14034 10179,13998 10154,13963 10116,13931 10067,13905 10018,13879 9951,13855 9873,13836 9805,13819 9753,13806 9715,13795 9676,13783 9645,13768 9622,13750 9598,13732 9585,13708 9585,13679 9585,13648 9602,13621 9634,13601 9666,13580 9706,13570 9753,13570 9799,13570 9837,13578 9864,13594 9891,13609 9914,13630 9934,13655 9958,13685 9979,13707 9997,13722 10014,13736 10036,13743 10060,13743 10094,13743 10121,13734 10140,13717 10158,13699 10167,13677 10167,13648 10167,13623 10158,13596 10140,13569 10123,13542 10096,13517 10062,13494 10027,13471 9983,13453 9931,13440 9879,13426 9819,13419 9753,13419 9670,13419 9598,13433 9539,13459 9481,13486 9436,13522 9406,13567 9376,13611 9361,13659 9361,13709 9361,13765 9378,13813 9409,13850 9442,13889 9486,13920 9541,13944 9595,13968 9668,13991 9755,14013 9833,14031 9891,14051 9925,14073 9962,14094 9980,14129 9980,14177 9980,14208 9962,14236 9928,14261 9894,14284 9850,14296 9797,14296 9733,14296 9682,14284 9644,14261 9607,14238 9574,14203 9547,14156 9535,14134 9521,14115 9507,14102 9494,14091 9475,14084 9450,14084 9420,14084 9397,14093 9378,14113 9359,14131 9350,14154 9350,14180 9350,14222 9365,14263 9396,14304 9426,14345 9474,14380 9538,14408 9603,14435 9683,14450 9773,14450 9868,14450 9951,14437 10017,14411 10082,14385 10133,14348 10167,14299 Z"/>
      </g>
     </g>
     <g class="com.sun.star.drawing.ClosedBezierShape">
      <g id="id75">
       <path fill="rgb(43,57,144)" stroke="none" d="M 11988,13038 C 11905,13038 11838,13049 11791,13070 11744,13090 11711,13124 11691,13170 11671,13216 11661,13280 11661,13359 L 11661,13442 11593,13442 C 11511,13442 11471,13470 11471,13528 11471,13554 11480,13574 11500,13590 11519,13606 11548,13614 11584,13614 L 11661,13614 11661,14300 C 11661,14349 11673,14387 11695,14412 11718,14437 11746,14450 11782,14450 11818,14450 11847,14437 11870,14412 11893,14387 11905,14349 11905,14300 L 11905,13614 11974,13614 C 12018,13614 12054,13609 12079,13598 12103,13588 12114,13563 12114,13524 12114,13469 12068,13442 11974,13442 L 11905,13442 11905,13375 C 11905,13323 11911,13283 11925,13255 11939,13225 11972,13211 12020,13211 12037,13211 12058,13213 12083,13216 12107,13220 12124,13222 12134,13222 12153,13222 12170,13214 12185,13198 12199,13182 12206,13164 12206,13142 12206,13073 12133,13038 11988,13038 Z"/>
      </g>
     </g>
     <g class="com.sun.star.drawing.ClosedBezierShape">
      <g id="id76">
       <path fill="rgb(43,57,144)" stroke="none" d="M 12880,14329 C 12880,14306 12872,14287 12857,14272 12841,14256 12825,14249 12805,14249 12792,14249 12772,14252 12747,14256 12721,14262 12699,14265 12684,14265 12655,14265 12633,14257 12620,14243 12607,14229 12598,14209 12596,14186 12593,14165 12591,14133 12591,14093 L 12591,13615 12646,13615 C 12695,13615 12734,13608 12760,13595 12785,13582 12797,13560 12797,13528 12797,13503 12788,13482 12771,13467 12753,13451 12726,13442 12692,13442 L 12591,13442 12591,13261 C 12591,13219 12589,13185 12585,13162 12580,13140 12570,13121 12553,13106 12528,13083 12500,13071 12469,13071 12447,13071 12427,13077 12409,13087 12391,13097 12377,13110 12368,13127 12359,13143 12353,13163 12350,13185 12348,13208 12348,13241 12348,13282 L 12348,13442 12313,13442 C 12276,13442 12248,13451 12228,13467 12208,13483 12200,13503 12200,13528 12200,13554 12209,13574 12227,13590 12245,13606 12272,13615 12308,13615 L 12348,13615 12348,14113 C 12348,14192 12354,14256 12366,14303 12379,14348 12405,14385 12445,14411 12485,14437 12546,14450 12624,14450 12707,14450 12772,14439 12816,14418 12859,14397 12880,14368 12880,14329 Z"/>
      </g>
     </g>
     <g class="com.sun.star.drawing.ClosedBezierShape">
      <g id="id77">
       <path fill="rgb(43,57,144)" stroke="none" d="M 14137,14252 L 14347,13637 C 14366,13585 14376,13545 14376,13520 14376,13493 14365,13469 14344,13449 14323,13429 14297,13419 14269,13419 14240,13419 14217,13426 14202,13438 14186,13452 14175,13467 14169,13485 14162,13503 14153,13533 14142,13574 L 13966,14169 13808,13614 C 13793,13561 13780,13524 13772,13503 13763,13483 13749,13463 13728,13445 13708,13428 13679,13419 13642,13419 13606,13419 13578,13428 13557,13445 13537,13463 13523,13482 13515,13501 13508,13521 13495,13559 13479,13614 L 13321,14169 13147,13574 C 13131,13517 13115,13476 13100,13452 13087,13430 13060,13419 13020,13419 12989,13419 12964,13429 12943,13450 12922,13471 12912,13494 12912,13520 12912,13541 12922,13581 12942,13637 L 13150,14252 C 13156,14268 13164,14290 13174,14318 13184,14346 13195,14369 13208,14389 13221,14408 13236,14423 13255,14434 13274,14445 13297,14450 13324,14450 13377,14450 13413,14432 13434,14399 13455,14365 13476,14312 13495,14244 L 13642,13723 13795,14243 C 13807,14288 13819,14325 13829,14353 13840,14380 13856,14403 13877,14422 13899,14440 13928,14450 13965,14450 14001,14450 14029,14441 14050,14423 14071,14405 14086,14386 14095,14364 14105,14341 14119,14303 14137,14252 Z"/>
      </g>
     </g>
     <g class="com.sun.star.drawing.ClosedBezierShape">
      <g id="id78">
       <path fill="rgb(43,57,144)" stroke="none" d="M 15420,14252 C 15404,14199 15395,14148 15395,14099 15396,14048 15396,14001 15397,13960 15397,13918 15397,13866 15397,13806 15397,13712 15384,13637 15357,13580 15332,13524 15287,13483 15224,13456 15161,13429 15072,13417 14961,13417 14861,13417 14777,13431 14711,13458 14645,13485 14595,13520 14564,13561 14532,13602 14517,13646 14517,13689 14517,13716 14527,13737 14546,13755 14566,13773 14590,13781 14617,13781 14647,13781 14666,13776 14675,13766 14684,13755 14701,13730 14724,13695 14748,13658 14778,13630 14811,13611 14844,13592 14895,13583 14961,13583 15038,13583 15090,13600 15116,13632 15141,13666 15155,13717 15158,13785 L 15158,13790 15153,13792 C 15101,13807 15050,13820 15003,13832 14958,13842 14902,13855 14837,13868 14769,13882 14732,13890 14716,13893 14640,13910 14579,13942 14536,13991 14493,14039 14471,14098 14471,14166 14471,14216 14484,14264 14510,14308 14536,14352 14575,14386 14623,14411 14672,14437 14729,14449 14793,14449 14865,14449 14929,14437 14986,14414 15043,14390 15103,14354 15165,14306 L 15170,14301 15174,14308 C 15202,14354 15230,14390 15255,14414 15279,14437 15304,14449 15328,14449 15358,14449 15385,14439 15408,14418 15432,14398 15443,14376 15443,14351 15443,14337 15435,14303 15420,14252 Z M 15158,13976 C 15158,14066 15146,14132 15123,14172 15102,14207 15069,14237 15025,14260 14982,14282 14934,14294 14882,14294 14833,14294 14793,14279 14762,14251 14731,14223 14716,14188 14716,14147 14716,14108 14729,14077 14755,14055 14782,14033 14809,14018 14837,14011 14865,14004 14915,13993 14987,13977 15058,13962 15112,13947 15150,13933 L 15158,13931 15158,13976 Z"/>
      </g>
     </g>
     <g class="com.sun.star.drawing.ClosedBezierShape">
      <g id="id79">
       <path fill="rgb(43,57,144)" stroke="none" d="M 16216,13459 C 16167,13432 16115,13419 16062,13419 16011,13419 15968,13432 15937,13458 15906,13485 15875,13524 15844,13576 L 15833,13594 15832,13573 C 15830,13522 15821,13483 15803,13457 15785,13431 15756,13419 15716,13419 15636,13419 15597,13474 15597,13585 L 15597,14300 C 15597,14350 15609,14387 15632,14412 15654,14437 15683,14450 15718,14450 15753,14450 15783,14437 15806,14412 15829,14388 15841,14350 15841,14300 L 15841,14086 C 15841,14009 15843,13942 15848,13889 15853,13835 15863,13788 15876,13749 15890,13709 15908,13679 15933,13658 15976,13623 16040,13616 16127,13645 16171,13659 16187,13662 16193,13662 16216,13662 16238,13652 16259,13633 16279,13614 16289,13590 16289,13561 16289,13518 16265,13485 16216,13459 Z"/>
      </g>
     </g>
     <g class="com.sun.star.drawing.ClosedBezierShape">
      <g id="id80">
       <path fill="rgb(43,57,144)" stroke="none" d="M 17222,14264 C 17240,14234 17249,14207 17249,14186 17249,14161 17241,14143 17226,14129 17212,14116 17192,14109 17167,14109 17144,14109 17127,14114 17114,14125 17082,14155 17056,14178 17036,14196 17016,14214 16994,14230 16970,14246 16946,14262 16920,14274 16895,14281 16868,14288 16840,14292 16808,14292 16762,14292 16719,14280 16680,14257 16641,14234 16610,14199 16586,14154 16563,14109 16551,14056 16550,13997 L 16550,13991 17058,13991 C 17125,13991 17176,13981 17212,13962 17246,13945 17264,13904 17264,13843 17264,13775 17246,13707 17211,13641 17176,13575 17123,13521 17052,13479 16981,13437 16896,13417 16797,13417 16721,13417 16652,13429 16589,13454 16527,13478 16474,13513 16431,13559 16389,13604 16357,13659 16334,13724 16312,13787 16301,13857 16301,13932 16301,14091 16347,14218 16436,14310 16525,14402 16654,14449 16816,14449 16887,14449 16951,14440 17005,14421 17059,14402 17106,14379 17142,14351 17178,14323 17205,14294 17222,14264 Z M 16550,13851 C 16559,13763 16585,13696 16627,13651 16669,13605 16723,13583 16789,13583 16857,13583 16913,13605 16955,13650 16998,13695 17022,13762 17028,13851 L 17029,13857 16550,13857 16550,13851 Z"/>
      </g>
     </g>
     <g class="com.sun.star.drawing.ClosedBezierShape">
      <g id="id81">
       <path fill="rgb(43,57,144)" stroke="none" d="M 11875,15560 C 11894,15524 11903,15491 11903,15460 11903,15435 11893,15411 11874,15388 11855,15366 11830,15355 11801,15355 11776,15355 11755,15362 11738,15378 11721,15394 11704,15416 11689,15443 11660,15493 11627,15531 11589,15554 11551,15579 11506,15592 11453,15592 11415,15592 11378,15584 11346,15569 11314,15554 11285,15531 11261,15502 11239,15473 11221,15438 11209,15396 11197,15355 11191,15311 11191,15262 11191,15158 11215,15075 11261,15014 11309,14954 11373,14923 11450,14923 11504,14923 11549,14936 11584,14961 11618,14985 11652,15021 11683,15070 11701,15093 11716,15110 11730,15121 11744,15132 11759,15136 11779,15136 11810,15136 11836,15126 11858,15106 11879,15086 11890,15061 11890,15032 11890,15003 11880,14972 11860,14939 11841,14905 11811,14872 11774,14842 11736,14811 11689,14787 11634,14768 11580,14749 11519,14739 11453,14739 11348,14739 11256,14761 11181,14805 11105,14847 11046,14910 11007,14990 10966,15069 10946,15161 10946,15265 10946,15418 10990,15542 11078,15633 11165,15723 11288,15770 11444,15770 11518,15770 11585,15759 11643,15739 11702,15720 11751,15694 11790,15661 11828,15629 11857,15595 11875,15560 Z"/>
      </g>
     </g>
     <g class="com.sun.star.drawing.ClosedBezierShape">
      <g id="id82">
       <path fill="rgb(43,57,144)" stroke="none" d="M 13005,15574 C 12988,15521 12980,15470 12980,15421 12981,15370 12981,15323 12982,15282 12982,15240 12982,15188 12982,15128 12982,15034 12969,14959 12942,14902 12917,14846 12872,14805 12809,14778 12746,14752 12657,14739 12546,14739 12446,14739 12362,14753 12296,14780 12230,14807 12180,14842 12149,14883 12117,14924 12102,14968 12102,15011 12102,15038 12111,15059 12131,15077 12151,15095 12175,15103 12202,15103 12232,15103 12251,15098 12260,15088 12269,15077 12286,15052 12309,15017 12333,14980 12362,14952 12396,14933 12430,14914 12480,14905 12546,14905 12623,14905 12675,14922 12701,14954 12726,14987 12739,15039 12743,15107 L 12743,15112 12738,15114 C 12686,15129 12635,15142 12588,15153 12543,15164 12487,15177 12422,15190 12354,15204 12316,15211 12301,15215 12225,15231 12164,15264 12121,15313 12078,15361 12056,15420 12056,15488 12056,15538 12069,15586 12095,15630 12121,15674 12160,15708 12208,15733 12257,15758 12314,15771 12378,15771 12450,15771 12514,15759 12571,15735 12628,15712 12688,15676 12750,15628 L 12755,15623 12759,15630 C 12787,15676 12815,15712 12840,15736 12864,15759 12889,15771 12913,15771 12942,15771 12970,15761 12993,15740 13017,15720 13028,15698 13028,15673 13028,15659 13020,15625 13005,15574 Z M 12743,15298 C 12743,15388 12731,15454 12707,15494 12687,15529 12654,15559 12610,15582 12567,15604 12519,15616 12467,15616 12418,15616 12378,15601 12347,15573 12316,15545 12300,15510 12300,15469 12300,15430 12314,15399 12340,15377 12366,15355 12394,15340 12422,15333 12450,15326 12500,15315 12571,15299 12643,15284 12697,15269 12735,15255 L 12743,15253 12743,15298 Z"/>
      </g>
     </g>
     <g class="com.sun.star.drawing.ClosedBezierShape">
      <g id="id83">
       <path fill="rgb(43,57,144)" stroke="none" d="M 13801,14781 C 13752,14754 13700,14741 13647,14741 13596,14741 13553,14754 13522,14780 13491,14807 13460,14846 13429,14898 L 13418,14916 13417,14895 C 13415,14844 13406,14805 13388,14779 13370,14753 13341,14741 13301,14741 13221,14741 13182,14796 13182,14908 L 13182,15622 C 13182,15672 13194,15710 13216,15734 13239,15759 13267,15772 13303,15772 13338,15772 13368,15759 13391,15734 13414,15710 13426,15672 13426,15622 L 13426,15408 C 13426,15331 13428,15264 13433,15211 13438,15157 13448,15110 13461,15071 13475,15032 13494,15001 13518,14981 13561,14945 13625,14939 13712,14967 13756,14981 13772,14984 13778,14984 13801,14984 13823,14974 13844,14955 13864,14936 13874,14912 13874,14883 13874,14840 13850,14807 13801,14781 Z"/>
      </g>
     </g>
     <g class="com.sun.star.drawing.ClosedBezierShape">
      <g id="id84">
       <path fill="rgb(43,57,144)" stroke="none" d="M 14849,15634 C 14887,15590 14918,15535 14940,15470 14962,15404 14973,15332 14973,15255 14973,15149 14954,15056 14916,14979 14878,14902 14826,14843 14761,14803 14695,14763 14624,14743 14546,14743 14481,14743 14423,14757 14372,14784 14321,14811 14272,14855 14224,14914 L 14213,14927 14213,14878 C 14213,14834 14202,14800 14180,14776 14158,14753 14130,14741 14096,14741 14061,14741 14033,14753 14013,14775 13993,14798 13983,14834 13983,14880 L 13983,15987 C 13983,16042 13991,16084 14006,16111 14020,16139 14050,16152 14096,16152 14175,16152 14213,16099 14213,15989 L 14213,15586 14224,15600 C 14269,15656 14316,15699 14365,15728 14413,15757 14475,15772 14546,15772 14606,15772 14662,15759 14714,15736 14766,15713 14811,15678 14849,15634 Z M 14695,15433 C 14673,15484 14642,15522 14605,15547 14568,15573 14527,15586 14483,15586 14410,15586 14348,15556 14298,15498 14250,15441 14225,15360 14225,15256 14225,15147 14250,15063 14299,15006 14349,14949 14410,14920 14483,14920 14529,14920 14571,14934 14608,14961 14646,14987 14675,15025 14697,15075 14718,15124 14728,15184 14728,15252 14728,15322 14717,15384 14695,15433 Z"/>
      </g>
     </g>
     <g class="com.sun.star.drawing.ClosedBezierShape">
      <g id="id85">
       <path fill="rgb(43,57,144)" stroke="none" d="M 16010,15586 C 16027,15556 16036,15529 16036,15508 16036,15483 16028,15465 16014,15451 15999,15438 15979,15431 15954,15431 15931,15431 15914,15437 15901,15447 15869,15477 15844,15500 15824,15518 15803,15536 15781,15553 15757,15568 15733,15584 15707,15596 15682,15603 15656,15610 15627,15614 15595,15614 15549,15614 15506,15602 15467,15579 15428,15556 15397,15521 15374,15476 15350,15431 15338,15378 15338,15319 L 15337,15313 15845,15313 C 15912,15313 15963,15304 15999,15284 16033,15267 16051,15226 16051,15165 16051,15097 16033,15029 15998,14963 15963,14897 15910,14843 15839,14801 15768,14759 15683,14739 15584,14739 15508,14739 15439,14751 15377,14776 15315,14801 15261,14835 15219,14881 15176,14926 15144,14981 15122,15046 15099,15109 15088,15179 15088,15254 15088,15413 15134,15540 15223,15632 15312,15724 15441,15771 15603,15771 15674,15771 15738,15762 15793,15743 15847,15725 15893,15701 15929,15673 15965,15645 15992,15616 16010,15586 Z M 15338,15173 C 15346,15086 15372,15018 15414,14973 15456,14927 15510,14905 15576,14905 15644,14905 15701,14927 15742,14972 15785,15017 15809,15084 15816,15173 L 15816,15179 15337,15179 15338,15173 Z"/>
      </g>
     </g>
     <g class="com.sun.star.drawing.ClosedBezierShape">
      <g id="id86">
       <path fill="rgb(43,57,144)" stroke="none" d="M 17112,15144 C 17112,15089 17109,15042 17104,15006 17099,14971 17088,14937 17072,14907 17046,14854 17007,14813 16955,14784 16903,14755 16843,14741 16777,14741 16708,14741 16648,14755 16595,14782 16543,14809 16494,14853 16450,14912 L 16438,14927 16438,14876 C 16438,14847 16433,14822 16422,14802 16412,14782 16398,14766 16381,14756 16364,14746 16344,14741 16323,14741 16288,14741 16260,14753 16240,14775 16220,14798 16210,14834 16210,14880 L 16210,15622 C 16210,15670 16222,15707 16244,15733 16267,15759 16296,15772 16330,15772 16367,15772 16396,15759 16419,15734 16442,15710 16454,15672 16454,15622 L 16454,15300 C 16454,15194 16460,15123 16473,15084 16491,15035 16519,14996 16558,14969 16597,14941 16640,14927 16686,14927 16759,14927 16808,14950 16833,14997 16857,15043 16869,15109 16869,15195 L 16869,15622 C 16869,15670 16880,15707 16903,15733 16925,15759 16955,15772 16991,15772 17027,15772 17056,15759 17078,15734 17101,15709 17112,15672 17112,15622 L 17112,15144 Z"/>
      </g>
     </g>
     <g class="com.sun.star.drawing.ClosedBezierShape">
      <g id="id87">
       <path fill="rgb(43,57,144)" stroke="none" d="M 17915,15650 C 17915,15627 17907,15608 17892,15593 17876,15577 17860,15570 17840,15570 17827,15570 17807,15572 17782,15577 17755,15583 17735,15586 17719,15586 17690,15586 17669,15578 17655,15564 17642,15549 17633,15530 17631,15507 17628,15485 17626,15454 17626,15414 L 17626,14936 17681,14936 C 17731,14936 17769,14929 17795,14916 17820,14903 17832,14881 17832,14849 17832,14824 17823,14803 17806,14788 17788,14772 17761,14763 17727,14763 L 17626,14763 17626,14582 C 17626,14539 17624,14506 17620,14483 17615,14462 17604,14442 17588,14427 17563,14404 17535,14392 17504,14392 17482,14392 17462,14398 17444,14408 17426,14418 17412,14431 17403,14448 17394,14464 17388,14484 17385,14506 17383,14529 17383,14562 17383,14603 L 17383,14763 17348,14763 C 17311,14763 17283,14772 17263,14788 17243,14804 17235,14824 17235,14849 17235,14875 17244,14895 17262,14911 17280,14927 17307,14936 17343,14936 L 17383,14936 17383,15434 C 17383,15513 17389,15577 17401,15624 17414,15669 17441,15706 17480,15732 17520,15758 17581,15771 17659,15771 17742,15771 17807,15760 17851,15739 17894,15718 17915,15688 17915,15650 Z"/>
      </g>
     </g>
     <g class="com.sun.star.drawing.ClosedBezierShape">
      <g id="id88">
       <path fill="rgb(43,57,144)" stroke="none" d="M 18651,14781 C 18602,14754 18550,14741 18497,14741 18446,14741 18403,14754 18372,14780 18341,14807 18310,14846 18279,14898 L 18268,14916 18267,14895 C 18265,14844 18256,14805 18238,14779 18220,14753 18191,14741 18151,14741 18071,14741 18032,14796 18032,14908 L 18032,15622 C 18032,15672 18044,15710 18066,15734 18089,15759 18117,15772 18153,15772 18188,15772 18218,15759 18241,15734 18264,15710 18276,15672 18276,15622 L 18276,15408 C 18276,15331 18278,15264 18283,15211 18288,15157 18298,15110 18311,15071 18325,15032 18344,15001 18368,14981 18411,14945 18475,14939 18562,14967 18606,14981 18622,14984 18628,14984 18651,14984 18673,14974 18694,14955 18714,14936 18724,14912 18724,14883 18724,14840 18700,14807 18651,14781 Z"/>
      </g>
     </g>
     <g class="com.sun.star.drawing.ClosedBezierShape">
      <g id="id89">
       <path fill="rgb(43,57,144)" stroke="none" d="M 19249,16019 C 19276,15975 19305,15915 19333,15839 L 19668,14963 C 19676,14940 19682,14918 19688,14897 19693,14875 19697,14858 19700,14846 19700,14829 19695,14811 19686,14795 19677,14779 19664,14765 19647,14755 19630,14746 19613,14741 19595,14741 19569,14741 19549,14745 19535,14754 19522,14763 19508,14780 19496,14806 19483,14833 19468,14870 19452,14917 L 19240,15522 19017,14873 C 19003,14830 18986,14796 18968,14774 18950,14752 18925,14741 18890,14741 18870,14741 18850,14747 18831,14757 18812,14768 18798,14782 18787,14800 18777,14818 18771,14837 18771,14858 18771,14878 18781,14910 18800,14955 L 19116,15752 19092,15812 C 19074,15855 19059,15887 19045,15908 19031,15931 19015,15947 18997,15957 18979,15966 18955,15970 18925,15970 18913,15970 18897,15968 18881,15964 18868,15961 18855,15959 18842,15959 18808,15959 18783,15966 18767,15982 18750,15996 18742,16017 18742,16045 18742,16086 18759,16113 18794,16128 18831,16144 18887,16152 18962,16152 19037,16152 19098,16140 19142,16118 19186,16095 19222,16062 19249,16019 Z"/>
      </g>
     </g>
     <g class="com.sun.star.drawing.ClosedBezierShape">
      <g id="id90">
       <path fill="rgb(43,57,144)" stroke="none" d="M 10694,13172 C 10694,13172 10682,13210 10694,13223 10705,13236 10765,13240 10765,13240 L 10765,13976 10882,14061 10981,13968 10981,13246 11011,13240 C 11058,13252 11070,13210 11070,13210 L 11070,13172 10694,13172 Z M 10941,13960 L 10908,13972 10908,13251 10941,13240 10941,13960 Z M 11029,13208 C 10994,13210 10770,13185 10770,13185 L 11029,13185 C 11029,13185 11064,13206 11029,13208 Z"/>
      </g>
     </g>
     <g class="com.sun.star.drawing.ClosedBezierShape">
      <g id="id91">
       <path fill="rgb(43,57,144)" stroke="none" d="M 11245,13493 L 11242,13491 C 11222,13472 11196,13461 11169,13461 11110,13461 11062,13509 11062,13567 11062,13596 11073,13622 11092,13642 L 11094,13644 C 11098,13647 11101,13650 11105,13653 11178,13719 11220,13812 11220,13908 11220,14097 11067,14250 10879,14250 10691,14250 10538,14097 10538,13908 10538,13813 10578,13721 10649,13656 10679,13636 10697,13603 10697,13567 10697,13509 10649,13461 10591,13461 10562,13461 10536,13472 10516,13491 L 10513,13494 10513,13493 C 10393,13598 10325,13750 10325,13908 10325,14214 10574,14463 10879,14463 11184,14463 11433,14214 11433,13908 11433,13750 11365,13598 11245,13493 Z"/>
      </g>
     </g>
     <g class="com.sun.star.drawing.ClosedBezierShape">
      <g id="id92">
       <path fill="rgb(43,57,144)" stroke="none" d="M 14371,12167 C 14316,12107 14041,12113 13964,12113 13547,12109 12768,12134 12380,12133 12364,12133 12310,12160 12319,12182 12043,12182 11895,12182 11562,12180 11382,12178 10950,12199 10939,11880 10934,11720 11080,11579 11253,11408 11142,11375 11031,11449 10920,11511 10866,11564 10829,11600 10783,11645 10615,11892 10549,12140 10589,12389 10741,12360 10854,12568 10747,12666 L 10651,12668 C 10607,12668 10571,12714 10572,12771 L 10575,12991 C 10576,13047 10613,13085 10658,13085 L 11137,13085 C 11183,13084 11218,13038 11217,12982 L 11214,12760 C 11213,12704 11176,12659 11132,12660 L 11072,12661 C 10966,12363 11307,12403 11499,12405 11862,12408 11982,12407 12302,12407 12320,12429 12311,12470 12361,12490 12392,12503 14311,12499 14345,12490 14380,12483 14370,12466 14383,12454 14399,12387 14437,12239 14371,12167 Z M 11135,12703 L 11135,12936 C 11135,12936 11129,12784 11066,12774 11003,12764 11039,12703 11039,12703 L 11135,12703 Z M 14349,12271 C 14349,12271 14293,12252 14247,12223 14149,12160 12410,12216 12410,12216 L 12459,12175 C 12459,12175 14232,12144 14293,12175 14354,12205 14349,12271 14349,12271 Z"/>
      </g>
     </g>
    </g>
   </g>
  </g>
 </g>
</svg>